<svg width="32" height="32" viewBox="0 0 32 32" fill="none" xmlns="http://www.w3.org/2000/svg">
<g clip-path="url(#clip0_823_91623)">
<path d="M27.065 27.043C24.0738 24.2827 20.1663 22.7282 16.0964 22.6793C12.0266 22.6305 8.08284 24.0907 5.02621 26.7783L3.64307 25.2089C7.08742 22.1794 11.5318 20.5328 16.1186 20.5869C20.7054 20.641 25.1097 22.3919 28.4816 25.5019L27.065 27.043Z" fill="#3F3F3F"/>
<path d="M15.8975 9.15972C16.9238 9.15972 17.9271 9.46408 18.7805 10.0343C19.6338 10.6045 20.299 11.415 20.6918 12.3632C21.0845 13.3114 21.1873 14.3548 20.987 15.3614C20.7868 16.368 20.2926 17.2927 19.5669 18.0184C18.8411 18.7442 17.9165 19.2384 16.9098 19.4386C15.9032 19.6389 14.8599 19.5361 13.9116 19.1433C12.9634 18.7506 12.1529 18.0854 11.5827 17.2321C11.0125 16.3787 10.7082 15.3754 10.7082 14.349C10.7099 12.9733 11.2571 11.6543 12.2299 10.6815C13.2027 9.70865 14.5217 9.16138 15.8975 9.15972ZM15.8975 7.06726C14.4573 7.06726 13.0494 7.49433 11.8519 8.29446C10.6545 9.09459 9.72115 10.2318 9.17001 11.5624C8.61887 12.893 8.47468 14.3571 8.75564 15.7696C9.03661 17.1822 9.73012 18.4796 10.7485 19.498C11.7669 20.5164 13.0644 21.2099 14.4769 21.4909C15.8894 21.7718 17.3535 21.6276 18.6841 21.0765C20.0147 20.5254 21.1519 19.592 21.952 18.3946C22.7522 17.1971 23.1792 15.7892 23.1792 14.349C23.1792 12.4178 22.412 10.5656 21.0464 9.20005C19.6808 7.83445 17.8287 7.06726 15.8975 7.06726Z" fill="#3F3F3F"/>
<path d="M16 2.09539C18.7507 2.09539 21.4395 2.91106 23.7266 4.43924C26.0137 5.96742 27.7963 8.13948 28.8489 10.6807C29.9015 13.222 30.1769 16.0184 29.6403 18.7162C29.1037 21.414 27.7791 23.8921 25.8341 25.8371C23.8891 27.7821 21.411 29.1066 18.7132 29.6432C16.0154 30.1799 13.2191 29.9045 10.6778 28.8518C8.13653 27.7992 5.96448 26.0166 4.4363 23.7296C2.90812 21.4425 2.09244 18.7536 2.09244 16.0029C2.09659 12.3157 3.56319 8.78068 6.17046 6.17342C8.77773 3.56615 12.3128 2.09954 16 2.09539ZM16 0.00292969C12.8355 0.00292969 9.74207 0.941325 7.11088 2.69943C4.4797 4.45753 2.42892 6.95638 1.21792 9.88C0.00691674 12.8036 -0.309915 16.0207 0.307448 19.1244C0.924812 22.2281 2.44866 25.079 4.6863 27.3167C6.92394 29.5543 9.77486 31.0781 12.8786 31.6955C15.9823 32.3129 19.1993 31.996 22.1229 30.785C25.0465 29.574 27.5454 27.5232 29.3035 24.8921C31.0616 22.2609 32 19.1674 32 16.0029C32 11.7595 30.3143 7.6898 27.3137 4.68922C24.3131 1.68864 20.2435 0.00292969 16 0.00292969Z" fill="#3F3F3F"/>
</g>
<defs>
<clipPath id="clip0_823_91623">
<rect width="32" height="32" fill="white"/>
</clipPath>
</defs>
</svg>
