<svg width="29" height="31" viewBox="0 0 29 31" fill="none" xmlns="http://www.w3.org/2000/svg">
<path d="M16.4858 27.5565C16.0213 28.2125 15.1796 28.6815 14.2222 28.6815C13.3184 28.6815 12.4544 28.2544 11.855 27.5565H16.4858Z" fill="white" stroke="#3F3F3F" stroke-width="3"/>
<path d="M5.30566 9.55664C5.30566 4.54239 9.85942 0.440654 15.2412 1.0625L15.248 1.06348C19.8142 1.5559 23.1385 5.50316 23.1387 9.96875V10.9316C23.1387 14.7232 24.3427 18.38 26.752 21.4492L26.7598 21.458L26.7676 21.4678L27.251 22.0547C27.2736 22.108 27.2915 22.1572 27.2998 22.2012C27.311 22.2607 27.3043 22.2865 27.3018 22.2939L27.2842 22.3447L27.2725 22.3955C27.103 23.1356 26.4098 23.6816 25.5557 23.6816H2.88867C2.06162 23.6815 1.30343 23.1494 1.00781 22.3115C1.01487 22.2864 1.02473 22.2615 1.03516 22.2422C1.04354 22.2266 1.0483 22.2226 1.04492 22.2266L1.0752 22.1982L1.11035 22.1553L1.67676 21.4678L1.68457 21.458L1.69238 21.4492C4.10172 18.38 5.30565 14.7233 5.30566 10.9316V9.55664Z" stroke="#3F3F3F" stroke-width="2"/>
</svg>
