<svg width="152" height="152" viewBox="0 0 152 152" fill="none" xmlns="http://www.w3.org/2000/svg">
<g clip-path="url(#clip0_840_91636)">
<path d="M109.955 39.0672L49.1963 49.2121C44.4025 50.0125 41.1653 54.5475 41.9657 59.3412L49.2121 102.74C50.0125 107.534 54.5474 110.771 59.3412 109.971L120.1 99.8261C124.894 99.0257 128.131 94.4907 127.331 89.697L120.084 46.2978C119.284 41.504 114.749 38.2668 109.955 39.0672Z" fill="#404040"/>
<path d="M120.644 103.081L59.8846 113.226C56.7198 113.751 53.476 112.999 50.865 111.135C48.2539 109.271 46.4889 106.448 45.9571 103.284L38.7108 59.8847C38.1859 56.7199 38.9379 53.4761 40.8017 50.865C42.6656 48.254 45.4891 46.4889 48.6528 45.9571L109.412 35.8122C112.576 35.2874 115.82 36.0393 118.431 37.9032C121.042 39.7671 122.807 42.5906 123.339 45.7543L130.586 89.1535C131.11 92.3183 130.358 95.5621 128.495 98.1731C126.631 100.784 123.807 102.549 120.644 103.081ZM49.7398 52.467C48.301 52.7073 47.0166 53.5092 46.1691 54.6964C45.3216 55.8837 44.9804 57.3589 45.2206 58.7977L52.467 102.197C52.7072 103.636 53.5092 104.92 54.6964 105.768C55.8836 106.615 57.3589 106.956 58.7977 106.716L119.557 96.5711C120.995 96.3309 122.28 95.5289 123.127 94.3417C123.975 93.1545 124.316 91.6792 124.076 90.2404L116.829 46.8412C116.589 45.4025 115.787 44.118 114.6 43.2705C113.413 42.423 111.937 42.0819 110.499 42.3221L49.7398 52.467Z" fill="#C3C3C3"/>
<path d="M78.9399 83.4661C79.9298 84.4338 81.134 85.1543 82.4547 85.569C83.7753 85.9838 85.1752 86.0811 86.5406 85.8531C87.906 85.6252 89.1983 85.0783 90.3126 84.257C91.4269 83.4357 92.3317 82.363 92.9535 81.1263L113.956 39.3604C112.664 38.9524 111.294 38.852 109.955 39.0672L49.1963 49.2121C47.8605 49.4434 46.5973 49.9835 45.5073 50.7894L78.9399 83.4661Z" fill="#404040"/>
<path d="M87.084 89.1077C85.2067 89.4312 83.2793 89.3023 81.4618 88.7318C79.6442 88.1614 77.9889 87.1657 76.6331 85.8275L43.2023 53.1482C42.8584 52.8123 42.592 52.4053 42.4219 51.9556C42.2517 51.506 42.1818 51.0247 42.2171 50.5452C42.2525 50.0658 42.3921 49.5998 42.6263 49.18C42.8605 48.7601 43.1836 48.3965 43.573 48.1146C45.0756 47.0104 46.8149 46.2717 48.6528 45.9572L109.412 35.8123C111.252 35.5127 113.137 35.6462 114.917 36.2023C115.377 36.3425 115.8 36.5814 116.158 36.9024C116.516 37.2233 116.8 37.6186 116.989 38.0606C117.178 38.5026 117.268 38.9805 117.253 39.461C117.239 39.9415 117.119 40.413 116.903 40.8424L95.9023 82.6101C95.0549 84.3162 93.8128 85.7956 92.2792 86.9257C90.7456 88.0557 88.9646 88.8037 87.084 89.1077ZM81.2474 81.1091C81.8661 81.7138 82.6187 82.164 83.4441 82.4232C84.2694 82.6823 85.1443 82.7432 85.9975 82.6007C86.8508 82.4582 87.6585 82.1165 88.3548 81.6032C89.0512 81.09 89.6167 80.4197 90.0054 79.6468L108.613 42.637L51.6255 52.1522L81.2474 81.1091Z" fill="#C3C3C3"/>
<path d="M83.9393 123.707L59.3451 123.353L34.7509 122.999L21.7075 44.88L67.9973 28.2292L83.9393 123.707Z" fill="#404040"/>
<path d="M84.4828 126.962C84.287 126.995 84.0888 127.01 83.8904 127.008L34.702 126.299C33.9294 126.287 33.1853 126.005 32.5995 125.501C32.0136 124.998 31.6231 124.304 31.496 123.542L18.4525 45.4235C18.3251 44.6614 18.4692 43.8787 18.8596 43.212C19.25 42.5452 19.862 42.0365 20.589 41.7746L66.8788 25.1238C67.3338 24.9599 67.8191 24.898 68.3006 24.9425C68.7821 24.9869 69.248 25.1367 69.6652 25.3811C70.0824 25.6255 70.4409 25.9586 70.7151 26.3569C70.9894 26.7551 71.1727 27.2088 71.2523 27.6857L87.1943 123.164C87.3384 124.027 87.1337 124.912 86.6252 125.625C86.1167 126.337 85.3461 126.818 84.4828 126.962ZM37.5522 119.738L80.0333 120.351L65.3946 32.6786L25.4171 47.0599L37.5522 119.738Z" fill="#C3C3C3"/>
<path d="M55.5408 100.568C47.6313 101.889 39.9241 93.8683 37.994 82.3089C36.064 70.7495 40.7472 60.6599 48.6567 59.3392C56.5662 58.0186 64.2734 66.0394 66.2035 77.5988C68.1336 89.1581 63.4503 99.2478 55.5408 100.568ZM49.7437 65.8491C46.1524 66.4487 43.1159 72.9088 44.5039 81.2219C45.8919 89.5351 50.8625 94.6582 54.4538 94.0586C58.0451 93.4589 61.0817 86.9988 59.6936 78.6857C58.3056 70.3726 53.335 65.2495 49.7437 65.8491Z" fill="#C3C3C3"/>
</g>
<defs>
<clipPath id="clip0_840_91636">
<rect width="132" height="132" fill="white" transform="translate(0 21.7391) rotate(-9.47922)"/>
</clipPath>
</defs>
</svg>
