<svg width="15" height="11" viewBox="0 0 15 11" fill="none" xmlns="http://www.w3.org/2000/svg">
<path d="M7.50002 6.87516C8.37447 6.87516 9.08335 6.16628 9.08335 5.29183C9.08335 4.41738 8.37447 3.7085 7.50002 3.7085C6.62557 3.7085 5.91669 4.41738 5.91669 5.29183C5.91669 6.16628 6.62557 6.87516 7.50002 6.87516Z" stroke="black" stroke-linejoin="round"/>
<path d="M7.50004 0.9375C4.09205 0.9375 1.54368 3.77428 0.687539 4.86836C0.490588 5.12003 0.490588 5.4633 0.687539 5.71497C1.54368 6.80905 4.09205 9.64583 7.50004 9.64583C10.908 9.64583 13.4564 6.80905 14.3126 5.71497C14.5095 5.4633 14.5095 5.12003 14.3126 4.86836C13.4564 3.77428 10.908 0.9375 7.50004 0.9375Z" stroke="black" stroke-linecap="round" stroke-linejoin="round"/>
</svg>
