<svg width="1391" height="511" viewBox="0 0 1391 511" fill="none" xmlns="http://www.w3.org/2000/svg">
<g clip-path="url(#clip0_692_91199)">
<g clip-path="url(#clip1_692_91199)">
<path d="M1150.04 230.246C1150.04 230.246 1173.38 260.213 1180.53 264.771C1187.68 269.318 1211.45 285.555 1211.45 285.555L1219.22 269.984L1181.9 250.132L1158 225.688L1150.04 230.246Z" fill="#BF5E60"/>
<path d="M1150.04 230.246C1150.04 230.246 1147.49 228.161 1147.14 224.036C1146.78 219.899 1149.24 201.688 1150.99 201.877C1152.75 202.065 1152.28 203.23 1152.75 208.82C1153.21 214.42 1154.61 220.42 1154.61 220.42L1158 225.677L1150.04 230.235V230.246Z" fill="#BF5E60"/>
<path d="M1149.35 226.93C1147.73 224.235 1149.49 219.577 1149.08 216.461C1148.97 215.574 1148.86 214.653 1149.18 213.821C1149.51 212.99 1150.44 212.335 1151.28 212.612C1152.1 212.89 1152.43 213.844 1152.66 214.686C1153.22 216.794 1153.79 218.901 1154.34 221.008" stroke="#A74145" stroke-width="0.5" stroke-miterlimit="10"/>
<path d="M1329.75 487.669L1341.6 496.153L1349.82 488.634L1338.78 477.499L1329.75 487.669Z" fill="#BF5E60"/>
<path d="M1338.16 496.53C1337.71 496.175 1337.69 495.488 1338.08 495.066L1340.34 492.571C1340.9 491.928 1342.64 492.294 1343.49 492.371C1347.13 492.726 1347.35 490.741 1346.82 487.081C1347.67 485.828 1349.23 486.682 1349.65 486.904L1359.16 491.65C1359.96 492.039 1360.3 493.015 1359.92 493.824C1359.86 493.968 1359.77 494.101 1359.67 494.223C1356.68 497.673 1355.26 499.314 1351.54 503.606L1340.14 516.748C1337.03 520.331 1332.81 517.868 1333.77 516.094C1338.07 508.153 1340.21 501.721 1340.08 497.95C1340.08 497.44 1339 497.196 1338.18 496.541L1338.16 496.53Z" fill="#263238"/>
<path d="M1339.66 499.802C1340.63 498.937 1342 498.549 1343.29 498.771" stroke="white" stroke-width="0.5" stroke-linecap="round" stroke-linejoin="round"/>
<path d="M1339.12 502.652C1340.1 501.787 1341.47 501.399 1342.75 501.621" stroke="white" stroke-width="0.5" stroke-linecap="round" stroke-linejoin="round"/>
<path d="M1338.23 505.957C1339.21 505.092 1340.58 504.704 1341.87 504.926" stroke="white" stroke-width="0.5" stroke-linecap="round" stroke-linejoin="round"/>
<path d="M1268.94 513.033L1252.92 519.199L1229.99 458.057C1229.19 455.906 1228.75 453.654 1228.68 451.359C1228.18 432.272 1225.98 341.185 1225.98 341.185C1256.36 313.603 1263.19 361.78 1262.97 362.435C1260.98 368.767 1255.25 452.834 1255.25 452.834C1255.25 452.834 1269.26 497.684 1268.92 513.022L1268.94 513.033Z" fill="#D0D0D2"/>
<path d="M1225.78 341.063L1226.17 341.717C1232.05 349.658 1243.17 358.109 1248.99 365.362L1251.01 369.943C1251.01 369.943 1293.37 337.148 1265.84 323.64C1264.7 323.074 1256.27 318.583 1256.27 318.583C1248.97 316.797 1225.77 341.074 1225.77 341.074L1225.78 341.063Z" fill="#D0D0D2"/>
<path d="M1289.08 370.043C1291.39 384.372 1298.56 421.37 1302.61 435.288C1302.61 435.288 1315.09 442.42 1322.14 450.405L1344.66 482.068L1334.61 491.074L1293.54 461.063C1284.25 454.076 1280.49 448.907 1276.85 442.098C1267.93 425.462 1263.53 404.279 1258.21 387.544C1255.75 379.78 1246.28 354.771 1247.09 346.73C1248.17 335.851 1248.56 318.25 1261.8 324.228C1274.47 327.943 1281.98 330.305 1289.09 370.043H1289.08Z" fill="#D0D0D2"/>
<path opacity="0.2" d="M1257.58 391.292L1247.16 352.863L1235.28 348.904L1244.55 357.533L1257.58 391.292Z" fill="black"/>
<path d="M1265.47 316.908C1262.18 313.126 1260.02 308.49 1259.25 303.544C1258.09 295.991 1256.5 285.433 1256.68 284.601L1257.2 264.228C1252.69 259.725 1235.96 259.681 1235.96 259.681L1224.73 262.542C1224.73 262.542 1220.55 264.372 1217.07 266.324C1212.4 268.93 1209.95 269.074 1209.3 272.069C1209.3 272.069 1208.38 281.895 1208.14 291.843C1208.05 295.392 1224.56 328.043 1224.76 334.198V344.213C1248.69 356.246 1273.84 326.49 1273.84 326.49L1265.47 316.919V316.908Z" fill="#494949"/>
<path opacity="0.3" d="M1257.6 292.531C1257.6 292.531 1247.11 283.071 1247.64 278.646L1256.56 283.437L1257.16 289.437L1257.6 292.542V292.531Z" fill="black"/>
<path d="M1265.3 273.122C1265.54 273.477 1280.73 290.557 1286.84 297.023C1288.15 298.409 1289.16 300.039 1289.82 301.836L1302.34 336.793L1294.5 339.133L1276.49 305.318L1253.86 286.198L1265.3 273.111V273.122Z" fill="#BF5E60"/>
<path d="M1294.2 336.327C1294.2 336.327 1292.1 338.723 1292.31 341.34C1292.51 343.958 1291.98 346.109 1292.27 348.039C1292.56 349.969 1293.98 347.74 1294.49 346.409C1295 345.067 1295.6 343.558 1296.55 344.102C1297.49 344.645 1302.2 352.775 1303.59 353.385C1304.99 353.995 1304.63 352.442 1304.63 352.442C1304.63 352.442 1305.83 354.383 1306.73 354.117C1306.96 354.05 1307.4 353.507 1306.98 352.542C1306.07 350.357 1303.92 345.876 1303.92 345.876C1304.04 346.131 1307.1 351.488 1307.65 352.22C1308.38 353.185 1309.23 353.274 1309.77 352.83C1310.55 352.198 1307 345.444 1307.04 345.056C1307.04 345.056 1308.96 349.015 1310.25 349.082C1311.55 349.148 1310.47 346.586 1309.09 344.512C1307.84 342.605 1305.86 338.546 1304.4 336.738C1302.59 334.509 1300.87 333.411 1298.27 334.087C1295.66 334.764 1294.19 336.327 1294.19 336.327H1294.2Z" fill="#BF5E60"/>
<path d="M1254.31 262.686C1259.4 263.008 1268.64 275.718 1268.64 275.718L1256.68 289.215C1256.68 289.215 1245.46 279.433 1245.26 272.89C1245.12 267.355 1247.85 262.254 1254.31 262.686Z" fill="#494949"/>
<path d="M1218.03 266.257C1218.03 266.257 1200.29 259.681 1200.58 259.891C1200.86 260.091 1193.43 276.638 1193.43 276.638L1210.75 288.316L1218.04 266.268L1218.03 266.257Z" fill="#494949"/>
<path d="M1271.71 247.437C1277.16 244.498 1280.17 237.666 1278.64 231.677C1275.48 233.075 1272.28 234.483 1268.88 235.16C1265.48 235.836 1261.82 235.703 1258.74 234.139C1256.42 232.964 1254.57 231.045 1252.68 229.248C1250.79 227.452 1248.75 225.677 1246.26 224.901C1243.77 224.124 1240.72 224.579 1239.12 226.631L1235.63 232.121C1237.91 231.599 1240.3 232.964 1241.62 234.893C1242.93 236.823 1243.37 239.208 1243.63 241.526C1243.89 243.843 1244 246.217 1244.76 248.424C1245.74 251.241 1247.75 253.625 1250.09 255.477C1255.29 259.603 1262.4 261.322 1268.85 259.758C1275.3 258.183 1280.9 253.259 1283 246.971C1279.3 247.747 1275.48 247.903 1271.74 247.426L1271.71 247.437Z" fill="#263238"/>
<path d="M1220.04 221.673C1220.04 221.673 1211.69 236.69 1211.3 241.37C1208.1 244.087 1205.84 238.575 1205.96 231.2C1206.06 225.156 1209.22 218.635 1214.45 216.283C1221.79 212.99 1220.05 221.673 1220.05 221.673H1220.04Z" fill="#263238"/>
<path d="M1219.65 273.122C1219.65 273.122 1217.41 266.202 1219.45 265.049C1220.85 263.651 1222.67 262.032 1222.41 260.002C1222.22 258.439 1221.72 256.819 1221.12 255.245L1223.21 252.982L1234.06 242.812C1233.54 249.843 1230.58 255.666 1235.95 259.692" fill="#BF5E60"/>
<path opacity="0.2" d="M1222.47 260.601C1225.42 259.004 1228.68 256.154 1228.43 252.76C1228.3 251.33 1228.05 249.965 1227.74 249.089L1221.61 256.609C1222.04 257.873 1222.19 258.705 1222.47 260.601Z" fill="black"/>
<path d="M1237.43 231.588C1236.06 242.291 1235.7 246.838 1229.95 252.272C1221.3 260.446 1208.55 257.13 1206.73 246.405C1205.08 236.757 1207.61 220.864 1218.33 216.738C1228.89 212.668 1238.81 220.897 1237.43 231.599V231.588Z" fill="#BF5E60"/>
<path d="M1222.84 235.359C1222.84 236.368 1222.25 237.222 1221.54 237.267C1220.83 237.311 1220.28 236.535 1220.28 235.526C1220.28 234.516 1220.86 233.662 1221.58 233.618C1222.29 233.574 1222.85 234.35 1222.84 235.359Z" fill="#263238"/>
<path d="M1212.61 234.583C1212.66 235.559 1212.14 236.424 1211.44 236.513C1210.74 236.601 1210.13 235.88 1210.08 234.904C1210.04 233.928 1210.56 233.063 1211.26 232.975C1211.96 232.886 1212.57 233.607 1212.61 234.583Z" fill="#263238"/>
<path d="M1225.71 231.899C1225.57 231.899 1225.43 231.866 1225.33 231.755C1223.74 230.147 1221.85 230.601 1221.83 230.601C1221.55 230.668 1221.28 230.502 1221.23 230.213C1221.19 229.925 1221.38 229.636 1221.65 229.57C1221.75 229.548 1224.12 228.971 1226.1 230.967C1226.3 231.167 1226.28 231.5 1226.07 231.721C1225.97 231.821 1225.84 231.877 1225.72 231.888L1225.71 231.899Z" fill="#263238"/>
<path d="M1209.04 229.703C1208.92 229.659 1208.8 229.581 1208.75 229.459C1208.63 229.204 1208.75 228.904 1209.02 228.771C1211.72 227.463 1213.85 228.594 1213.93 228.649C1214.19 228.782 1214.26 229.104 1214.1 229.348C1213.95 229.592 1213.61 229.681 1213.36 229.548C1213.28 229.503 1211.62 228.649 1209.46 229.692C1209.32 229.758 1209.17 229.77 1209.04 229.725V229.703Z" fill="#263238"/>
<path d="M1209.93 219.921C1212.2 215.197 1221.48 210.805 1232.12 215.374C1248.02 220.753 1240.4 246.505 1235.63 241.404C1234.33 240.017 1233.25 238.642 1232.32 237.322C1226.79 229.381 1219.07 223.215 1209.96 219.932H1209.93V219.921Z" fill="#263238"/>
<path d="M1240.36 240.461C1239.01 242.612 1236.9 243.921 1234.99 244.331C1232.11 244.941 1230.81 240.317 1231.89 237.5C1232.86 234.971 1235.72 233.374 1238.47 234.028C1241.18 234.683 1241.91 237.988 1240.36 240.45V240.461Z" fill="#BF5E60"/>
<path d="M1215.68 233.74C1215.68 233.74 1213.85 237.699 1211.86 240.139C1211.51 240.561 1211.69 241.215 1212.2 241.426C1213.51 241.958 1215.08 241.581 1215.08 241.581L1215.67 233.751L1215.68 233.74Z" fill="#A74145"/>
<path d="M1221.8 233.585L1219.3 233.119C1219.3 233.119 1220.73 234.893 1221.8 233.585Z" fill="#263238"/>
<path d="M1211.62 232.986L1209.1 232.664C1210.33 234.006 1211.3 233.418 1211.62 232.986Z" fill="#263238"/>
<path opacity="0.2" d="M1236.41 236.712C1237.32 236.357 1238.27 236.967 1238.57 237.721C1238.93 238.631 1238.42 240.749 1235.63 241.415" stroke="black" stroke-width="0.5" stroke-linecap="round" stroke-linejoin="round"/>
<path d="M1214.09 245.086C1214.9 246.272 1215.89 248.579 1215.89 248.579C1216.11 248.524 1216.34 248.479 1216.57 248.413C1219.61 247.636 1220.76 246.272 1221.12 244.997C1221.31 244.298 1221.25 243.622 1221.14 243.078C1221.02 242.457 1220.79 242.047 1220.79 242.047C1219.42 243.422 1216.64 244.365 1215.13 244.808C1214.5 244.997 1214.1 245.086 1214.1 245.086H1214.09Z" fill="#263238"/>
<path d="M1215.12 244.797L1215.68 245.818C1218.54 245.074 1220.45 244.176 1221.13 243.078C1221.01 242.457 1220.78 242.047 1220.78 242.047C1219.41 243.422 1216.63 244.365 1215.12 244.808V244.797Z" fill="white"/>
<path d="M1216.57 248.402C1219.61 247.625 1220.76 246.261 1221.12 244.986C1220.1 245.296 1218.89 245.773 1217.91 246.516C1217.17 247.082 1216.78 247.758 1216.57 248.402Z" fill="#FB504E"/>
<path d="M1016.6 280.531C1016.6 280.531 1000.23 306.416 997.186 319.503C995.531 326.601 1004.78 359.218 1004.78 359.218L1014.09 357.932C1014.09 357.932 1009.18 324.66 1010.93 321.455C1016.2 311.795 1032.56 290.945 1032.31 290.324C1032.07 289.703 1016.6 280.542 1016.6 280.542V280.531Z" fill="#FCC6C1"/>
<path d="M1005.12 368.701C1006.16 371.118 1007.59 374.257 1008.82 374.557C1010.07 374.856 1010.41 373.88 1011.2 373.869C1011.99 373.869 1012.99 374.756 1014.38 373.115C1014.38 373.115 1017.18 374.235 1018.01 372.25C1019.97 372.061 1020.52 370.886 1020.16 368.789C1020.05 368.29 1018.84 365.507 1018.79 364.996C1018.97 365.107 1020.83 368.091 1021.1 368.179C1023.41 368.911 1024.57 368.579 1024.59 367.492C1024.6 366.926 1024.26 366.427 1023.77 366.15C1022.57 365.496 1022.15 360.627 1020.74 359.806C1019.56 359.119 1015.5 357.045 1013.81 356.612C1012.12 356.18 1005.26 358.054 1005.26 358.054C1005.26 358.054 1004.06 366.283 1005.1 368.701H1005.12Z" fill="#FCC6C1"/>
<path d="M1073.63 264.982C1073.63 264.982 1097.42 258.538 1103.62 254.091C1109.81 249.644 1120.87 219.322 1120.87 219.322L1129.09 219.455C1129.09 219.455 1122.87 254.224 1117.27 261.511C1111.66 268.797 1083.44 282.283 1083.44 282.283L1073.63 264.993V264.982Z" fill="#FACECA"/>
<path d="M1121.6 220.487C1121.6 220.487 1118.55 218.269 1118.12 215.185C1117.68 212.102 1116.51 209.762 1116.34 207.455C1116.18 205.149 1118.39 207.356 1119.33 208.775C1120.27 210.195 1121.35 211.781 1122.3 210.905C1123.25 210.028 1126.58 199.426 1128.04 198.361C1129.49 197.296 1129.49 199.182 1129.49 199.182C1129.49 199.182 1130.37 196.631 1131.48 196.698C1131.77 196.72 1132.4 197.23 1132.19 198.45C1131.7 201.211 1130.37 206.945 1130.37 206.945C1130.44 206.612 1132.58 199.648 1133.05 198.649C1133.65 197.341 1134.59 197.03 1135.34 197.396C1136.41 197.929 1134.04 206.646 1134.2 207.089C1134.2 207.089 1135.39 202.021 1136.88 201.611C1138.35 201.2 1137.78 204.439 1136.73 207.189C1135.77 209.718 1134.54 214.919 1133.31 217.392C1131.8 220.442 1130.09 222.139 1126.9 222.028C1123.72 221.917 1121.61 220.498 1121.61 220.498L1121.6 220.487Z" fill="#FACECA"/>
<path d="M966.336 517.137L976.431 521.185L990.357 501.055L977.619 493.514L966.336 517.137Z" fill="#FDAC6D"/>
<path d="M967.002 506.423L985.381 517.935C985.381 517.935 1027.53 461.063 1035.38 446.479C1043.23 431.895 1059.17 393.821 1059.17 393.821L1059.14 393.898C1059.52 394.996 1061.02 406.475 1064.5 418.076C1069.06 433.259 1073.87 449.617 1074.8 453.854C1077.51 466.342 1061.58 544.231 1061.58 544.231L1080.93 549.654C1080.93 549.654 1104.06 471.1 1105.14 460.497C1107.65 435.754 1088.5 374.301 1087.97 371.152C1087.27 367.137 1086.49 354.948 1086.49 354.948L1035.85 341.695C1035.85 341.695 1032.18 348.627 1029.7 354.982C1020.45 378.837 1013.06 422.346 1010.43 431.318C996.72 448.331 966.991 506.434 966.991 506.434L967.002 506.423Z" fill="#666666"/>
<path opacity="0.2" d="M1062.35 388.054L1059.14 393.898C1059.25 395.24 1062.75 413.95 1064.37 417.266C1069.52 408.006 1068.91 396.361 1062.35 388.054Z" fill="#444444"/>
<path d="M1067.75 284.612C1075.23 289.88 1102.46 281.252 1102.46 281.252L1098.72 257.219C1098.72 257.219 1087.58 259.847 1075.9 263.274C1067.96 265.57 1059.53 278.878 1067.76 284.612H1067.75Z" fill="#191919"/>
<path d="M1025.67 265.914C1027.55 276.616 1025.24 287.396 1025.48 298.254C1025.69 305.851 1025.69 313.359 1025.42 319.902C1024.8 335.218 1022.65 355.104 1022.74 359.085C1042.42 352.276 1082.81 382.231 1097.72 365.374C1084.12 316.852 1080.63 261.899 1080.63 261.899C1075.07 261.899 1071.9 263.884 1067.77 263.396C1066.89 263.296 1066.02 263.208 1065.1 263.13C1057.71 262.797 1050.3 262.886 1042.92 263.407C1041.52 263.496 1040.1 263.618 1038.72 263.751C1031.63 264.439 1025.68 265.903 1025.68 265.903L1025.67 265.914Z" fill="#191919"/>
<path opacity="0.2" d="M1034.24 288.871C1033.57 296.901 1030.61 304.575 1025.73 310.986C1025.73 309.499 1025.73 307.991 1025.65 306.472C1025.48 300.771 1025.14 294.849 1024.52 288.86H1034.24V288.871Z" fill="black"/>
<path d="M1026.5 265.725C1017.22 267.045 998.597 298.731 998.597 298.731L1022.69 312.172C1022.69 312.172 1030.9 295.304 1036.9 284.646C1043.42 273.045 1037.73 264.128 1026.5 265.725Z" fill="#191919"/>
<path opacity="0.2" d="M1082.9 285.743C1082.9 285.743 1080.47 275.784 1080.62 274.342C1080.76 272.923 1088.1 284.878 1088.1 284.878C1086.47 285.267 1082.9 285.755 1082.9 285.755V285.743Z" fill="black"/>
<path d="M1072.4 219.999L1073.52 220.653C1074.83 220.675 1076.07 221.673 1076.38 222.949C1076.69 224.224 1076.04 225.666 1074.89 226.287C1074.71 226.376 1074.51 226.476 1074.46 226.664C1074.36 226.964 1074.68 227.219 1074.91 227.429C1076.09 228.45 1075.94 230.468 1074.89 231.611C1073.83 232.753 1072.15 233.119 1070.59 232.997C1070.18 228.616 1072.79 224.38 1072.41 219.999H1072.4Z" fill="#263238"/>
<path d="M1039.01 232.32C1037.34 232.398 1035.67 231.367 1035 229.847C1034.81 229.426 1034.7 228.96 1034.78 228.505C1034.99 227.274 1036.4 226.709 1037.61 226.365C1036.27 226.032 1035.37 224.701 1035.1 223.337C1034.98 222.716 1034.98 222.062 1035.18 221.463C1035.52 220.453 1036.42 219.71 1037.41 219.311C1038.4 218.912 1039.47 218.812 1040.54 218.701L1046.66 238.076C1045.29 238.387 1043.87 238.564 1042.5 238.331C1041.12 238.099 1039.77 237.4 1039 236.224C1038.23 235.06 1038.15 233.396 1039.02 232.298L1039.01 232.32Z" fill="#263238"/>
<path d="M1062.74 263.052C1060.52 259.903 1061.34 255.411 1061.88 253.858C1062.15 252.993 1062.48 252.15 1062.87 251.33L1046.78 237.4C1047.79 244.653 1051.03 258.45 1045.39 263.252C1045.39 263.252 1057.21 271.503 1060.14 268.686C1063.07 265.869 1062.73 263.052 1062.73 263.052H1062.74Z" fill="#FCC6C1"/>
<path opacity="0.2" d="M1049.67 244.786C1048.7 253.248 1057.2 257.352 1061.5 258.705C1061.21 257.086 1061.35 255.433 1061.9 253.88L1049.67 244.786Z" fill="black"/>
<path d="M1044.04 231.078C1046.03 241.082 1046.94 246.76 1052.88 251.208C1061.82 257.906 1073.76 251.795 1074.9 241.381C1075.92 232.01 1072.5 217.237 1061.78 214.62C1051.22 212.047 1042.05 221.075 1044.04 231.078Z" fill="#FCC6C1"/>
<path d="M1041.1 219.134C1041.78 213.4 1056.12 211.492 1060.51 213.821C1061.16 214.165 1053.22 219.4 1053.71 219.156L1049.89 221.008C1049.26 220.953 1048.14 221.807 1047.76 223.747C1047.76 223.747 1050.28 239.141 1046.37 244.198C1042.52 242.945 1041.48 236.845 1039.85 233.352C1037.42 228.139 1034.3 220.442 1041.11 219.145L1041.1 219.134Z" fill="#263238"/>
<path d="M1041.05 240.017C1042.23 242.501 1044.48 244.221 1046.68 244.952C1049.98 246.05 1050.7 242.612 1049.98 239.474C1049.34 236.646 1048 233.274 1044.6 233.54C1041.25 233.795 1039.71 237.178 1041.06 240.017H1041.05Z" fill="#FCC6C1"/>
<path d="M1059.62 231.311C1059.75 232.343 1060.43 233.097 1061.13 233.008C1061.83 232.908 1062.27 231.999 1062.14 230.967C1062.01 229.936 1061.33 229.182 1060.63 229.27C1059.93 229.37 1059.49 230.28 1059.62 231.311Z" fill="#263238"/>
<path d="M1069.75 230.99C1069.88 232.021 1070.56 232.775 1071.26 232.686C1071.96 232.587 1072.4 231.677 1072.27 230.646C1072.13 229.614 1071.46 228.86 1070.76 228.949C1070.06 229.049 1069.61 229.958 1069.75 230.99Z" fill="#263238"/>
<path d="M1066.28 230.812C1066.28 230.812 1070.34 235.503 1071.69 237.455C1070.38 238.941 1067.76 238.675 1067.76 238.675L1066.28 230.812Z" fill="#FCC6C1"/>
<path d="M1056.04 227.551C1056.21 227.596 1056.4 227.551 1056.53 227.418C1058.11 225.866 1059.93 226.187 1059.95 226.187C1060.22 226.243 1060.49 226.065 1060.55 225.799C1060.61 225.533 1060.43 225.278 1060.16 225.234C1060.06 225.211 1057.79 224.812 1055.83 226.742C1055.63 226.93 1055.63 227.241 1055.83 227.429C1055.9 227.485 1055.98 227.529 1056.05 227.551H1056.04Z" fill="#263238"/>
<path opacity="0.2" d="M1043.05 236.923C1043.38 236.269 1044.22 235.936 1044.96 236.014C1045.7 236.091 1046.38 236.524 1046.9 237.045C1047.53 237.677 1047.98 238.476 1048.19 239.33" stroke="black" stroke-width="0.5" stroke-linecap="round" stroke-linejoin="round"/>
<path d="M1073.77 226.01C1073.86 225.977 1073.93 225.921 1074 225.843C1074.17 225.622 1074.12 225.322 1073.9 225.156C1071.69 223.537 1069.52 224.302 1069.42 224.324C1069.17 224.413 1069.02 224.701 1069.12 224.956C1069.21 225.211 1069.5 225.333 1069.76 225.245C1069.85 225.211 1071.52 224.635 1073.3 225.932C1073.43 226.032 1073.61 226.054 1073.77 225.999V226.01Z" fill="#263238"/>
<path d="M1037.73 214.553C1038.26 212.124 1041.32 211.259 1043.75 211.47C1043.31 208.631 1046.95 206.546 1049.37 206.357C1051.89 206.158 1052.91 207.034 1052.91 207.034C1052.72 207.1 1053.51 205.537 1054.03 204.893C1055.97 202.52 1059.34 201.489 1062.24 202.398C1065.14 203.296 1067.39 206.08 1067.71 209.152C1069.09 207.433 1071.9 207.189 1073.56 208.631C1075.21 210.073 1075.42 212.945 1073.98 214.609C1075.83 214.509 1077.6 216.228 1077.59 218.136C1077.59 220.043 1075.82 221.74 1073.96 221.629C1074.09 223.758 1074.16 226.42 1074.29 228.538L1070.49 221.097C1068.94 220.742 1068.57 220.11 1068.09 218.557C1067.23 220.675 1065.47 220.697 1063.24 220.864C1061 221.03 1058.71 219.81 1057.54 217.847C1056.62 220.054 1054.61 221.884 1052.28 222.084C1049.94 222.283 1047.46 220.542 1047.19 218.158C1046.05 220.354 1043.22 221.441 1040.94 220.575C1038.66 219.71 1037.22 216.993 1037.74 214.564L1037.73 214.553Z" fill="#263238"/>
<path d="M1067.37 242.091C1066.5 243.2 1065.73 244.376 1065.04 245.596C1064.8 245.507 1064.57 245.429 1064.34 245.33C1061.2 244.132 1060.12 242.546 1059.91 241.137C1059.82 240.45 1059.89 239.74 1060.12 239.086C1060.24 238.709 1060.41 238.354 1060.63 238.032C1061.92 239.662 1064.76 241.004 1066.32 241.659C1066.99 241.914 1067.38 242.091 1067.38 242.091H1067.37Z" fill="#263238"/>
<path d="M1066.34 241.648L1065.62 242.668C1062.66 241.537 1060.73 240.35 1060.14 239.086C1060.26 238.709 1060.43 238.354 1060.65 238.032C1061.95 239.684 1064.78 241.004 1066.34 241.659V241.648Z" fill="white"/>
<path d="M1064.37 245.318C1061.23 244.121 1060.15 242.535 1059.94 241.126C1061.13 241.603 1062.22 242.291 1063.17 243.145C1063.79 243.733 1064.21 244.487 1064.37 245.318Z" fill="#D7504D"/>
<path d="M1195.41 299.274C1196.77 300.727 1197.87 302.013 1199.03 303.4C1200.19 304.786 1201.29 306.161 1202.34 307.581C1204.5 310.387 1206.53 313.281 1208.52 316.209C1210.5 319.137 1212.38 322.143 1214.15 325.259L1215.65 327.721C1216.2 328.653 1216.66 329.595 1217.12 330.538C1218 332.401 1218.75 334.309 1219.37 336.272C1220.54 339.965 1221.35 343.78 1221.76 347.629C1222.19 351.333 1222.33 355.059 1222.21 358.786C1222.12 362.423 1221.81 366.039 1221.28 369.632C1220.78 373.237 1220.04 376.808 1219.08 380.313L1209.93 378.793C1209.93 375.688 1209.89 372.294 1209.7 369.067C1209.53 365.839 1209.23 362.579 1208.82 359.407C1208.14 353.34 1206.61 347.407 1204.3 341.762C1203.74 340.509 1203.11 339.289 1202.41 338.113C1202.05 337.558 1201.72 336.982 1201.35 336.472C1201.14 336.194 1201.02 335.995 1200.76 335.662L1200.01 334.675C1197.95 332.069 1195.93 329.462 1193.83 326.845C1191.75 324.239 1189.68 321.621 1187.59 319.126L1181.45 311.607L1195.4 299.263L1195.41 299.274Z" fill="#FFBBB5"/>
<path d="M1170.33 305.806C1168.33 312.915 1189.73 327.255 1189.73 327.255L1208.07 313.303C1203.98 306.705 1199.31 300.472 1194.12 294.705C1185.55 285.167 1173.57 294.283 1170.34 305.806H1170.33Z" fill="#263238"/>
<path opacity="0.2" d="M1170.33 305.806C1168.33 312.915 1189.73 327.255 1189.73 327.255L1208.07 313.303C1203.98 306.705 1199.31 300.472 1194.12 294.705C1185.55 285.167 1173.57 294.283 1170.34 305.806H1170.33Z" fill="white"/>
<path opacity="0.2" d="M1185.28 314.202C1182.22 312.294 1181.51 316.209 1181.72 321.255C1185.95 324.727 1189.71 327.255 1189.71 327.255L1192.05 325.481C1190.55 320.79 1188.36 316.12 1185.28 314.213V314.202Z" fill="black"/>
<path d="M1212.52 376.375C1212.52 376.375 1208.8 376.974 1207.01 379.514C1205.21 382.054 1203.1 383.606 1201.9 385.592C1200.7 387.577 1203.67 386.612 1205.15 385.78C1206.63 384.948 1208.32 384.017 1208.77 385.226C1209.22 386.434 1207.35 397.392 1208.17 399.011C1208.98 400.619 1209.84 398.945 1209.84 398.945C1209.84 398.945 1209.46 401.617 1210.48 402.061C1210.75 402.172 1211.55 402.017 1211.91 400.819C1212.74 398.135 1214.17 392.423 1214.17 392.423C1214.08 392.745 1212.81 399.932 1212.77 401.03C1212.7 402.471 1213.41 403.181 1214.25 403.181C1215.43 403.192 1217.3 394.353 1217.64 394.031C1217.64 394.031 1216.4 399.089 1217.53 400.12C1218.67 401.152 1219.62 398.013 1219.94 395.085C1220.23 392.401 1221.51 387.211 1221.54 384.449C1221.59 381.056 1220.84 378.76 1217.95 377.407C1215.07 376.054 1212.55 376.364 1212.55 376.364L1212.52 376.375Z" fill="#FFBBB5"/>
<path d="M1123.08 407.884C1123.08 407.884 1146.27 409.913 1172.14 406.641C1198.01 403.37 1198.28 399.3 1198.28 399.3L1190.55 390.383C1190.55 390.383 1172.96 386.08 1171.57 385.836C1170.18 385.592 1123.1 407.873 1123.1 407.873L1123.08 407.884Z" fill="#263238"/>
<path d="M1167.79 263.928C1166.66 271.293 1165.78 284.734 1171.1 289.403C1167.28 293.518 1162.29 298.298 1153.6 298.963C1144.92 299.629 1146.19 293.562 1148.36 290.346C1156.44 288.061 1155.98 282.039 1154.32 276.405L1167.78 263.928H1167.79Z" fill="#FFBBB5"/>
<path d="M1145.61 255.489C1145.47 256.287 1144.95 256.875 1144.43 256.797C1143.91 256.72 1143.58 255.999 1143.71 255.2C1143.83 254.391 1144.36 253.825 1144.87 253.903C1145.38 253.98 1145.72 254.701 1145.59 255.489H1145.61Z" fill="#263238"/>
<path d="M1145.27 256.254C1143.94 258.549 1142.31 260.646 1140.4 262.487C1141.37 263.44 1142.72 263.917 1144.07 263.784L1145.27 256.254Z" fill="#E97A75"/>
<path d="M1147.92 252.605C1147.77 252.538 1147.67 252.405 1147.65 252.25C1147.48 251.052 1146.74 250.01 1145.67 249.455C1145.43 249.355 1145.32 249.067 1145.42 248.834C1145.52 248.59 1145.81 248.479 1146.04 248.579C1147.4 249.278 1148.35 250.575 1148.58 252.084C1148.63 252.339 1148.45 252.583 1148.19 252.627C1148.1 252.649 1148 252.638 1147.92 252.605Z" fill="#263238"/>
<path d="M1172.96 257.651C1170.48 267.267 1169.53 273.012 1163.65 277.093C1154.8 283.193 1143.64 276.427 1143.18 266.269C1142.77 257.13 1146.87 242.945 1157.15 240.849C1164.49 239.352 1171.66 244.076 1173.15 251.407C1173.57 253.47 1173.5 255.61 1172.95 257.651H1172.96Z" fill="#FFBBB5"/>
<path d="M1153.05 259.27C1150.42 255.888 1151.86 249.012 1153.8 245.784C1151.66 246.982 1144.65 246.128 1144.92 240.616C1145.31 232.542 1159 231.422 1166.36 233.252C1174.84 235.426 1182.1 243.888 1185.22 241.27C1187.97 246.816 1182.52 248.391 1182.52 248.391C1182.52 248.391 1187.08 262.054 1166.93 274.076C1164.28 273.555 1161.57 273.522 1158.91 273.965C1158.31 273.932 1157.74 273.666 1157.34 273.222C1155.49 271.148 1150.45 264.782 1153.03 259.27H1153.05Z" fill="#263238"/>
<path d="M1181.81 248.058C1181.81 248.058 1185.43 249.034 1186.81 246.749C1186.26 250.087 1184.2 249.999 1181.81 248.058Z" fill="#263238"/>
<path d="M1159.31 262.708C1157.95 264.805 1155.82 266.291 1153.38 266.823C1150.15 267.488 1148.74 264.538 1149.83 261.633C1150.8 258.982 1153.67 255.444 1156.83 256.087C1160 256.72 1160.92 260.135 1159.31 262.708Z" fill="#FFBBB5"/>
<path d="M1152.88 379.381C1152.88 379.381 1164.53 461.673 1171.07 490.175C1178.23 521.506 1204 575.229 1204 575.229L1223.19 569.062C1223.19 569.062 1206.85 525.987 1201.08 495.222C1197.17 474.272 1193.98 431.063 1193.79 408.094C1193.65 389.95 1187.37 378.438 1187.37 378.438L1152.87 379.37L1152.88 379.381Z" fill="#D0D0D2"/>
<path opacity="0.2" d="M1163.74 416.745C1164.56 439.481 1165.02 442.176 1164.89 459.732C1161.67 440.911 1158.33 419.118 1155.92 402.993L1163.74 416.745Z" fill="black"/>
<path d="M1142.56 586.974L1160.4 585.998C1160.4 585.998 1157.27 522.083 1156.81 490.93C1156.67 481.447 1157.72 468.127 1159.32 453.81C1161.33 435.754 1162.4 428.545 1165.04 405.732C1166.92 389.473 1168.69 378.96 1168.69 378.96L1126.62 378.749C1126.62 378.749 1127.72 459.044 1130 489.466C1132.41 521.063 1142.57 586.963 1142.57 586.963L1142.56 586.974Z" fill="#D0D0D2"/>
<path opacity="0.2" d="M1173.39 403.969L1163.74 416.745C1163.74 416.745 1171.45 414.693 1173.39 403.969Z" fill="black"/>
<path d="M1190.3 296.069C1183.64 334.043 1198.42 391.425 1198.28 399.3C1185.19 380.468 1139.21 407.462 1123.08 407.873C1130.74 340.93 1135.1 291.422 1135.1 291.422C1135.1 291.422 1138.49 290.535 1143.12 289.758C1144.57 289.514 1146.14 289.292 1147.78 289.093C1148.67 288.982 1149.6 288.893 1150.54 288.804C1158.12 288.461 1165.72 288.538 1173.29 289.048C1174.72 289.126 1176.19 289.215 1177.61 289.403C1179.02 289.592 1180.21 289.703 1181.42 289.847C1183.3 290.102 1185.03 290.368 1186.49 290.612C1189.04 291.045 1190.76 293.451 1190.33 296.002C1190.33 296.024 1190.33 296.036 1190.33 296.058L1190.3 296.069Z" fill="#263238"/>
<path opacity="0.2" d="M1190.3 296.069C1183.64 334.043 1198.42 391.425 1198.28 399.3C1185.19 380.468 1139.21 407.462 1123.08 407.873C1130.74 340.93 1135.1 291.422 1135.1 291.422C1135.1 291.422 1138.49 290.535 1143.12 289.758C1144.57 289.514 1146.14 289.292 1147.78 289.093C1148.67 288.982 1149.6 288.893 1150.54 288.804C1158.12 288.461 1165.72 288.538 1173.29 289.048C1174.72 289.126 1176.19 289.215 1177.61 289.403C1179.02 289.592 1180.21 289.703 1181.42 289.847C1183.3 290.102 1185.03 290.368 1186.49 290.612C1189.04 291.045 1190.76 293.451 1190.33 296.002C1190.33 296.024 1190.33 296.036 1190.33 296.058L1190.3 296.069Z" fill="white"/>
<path opacity="0.2" d="M1133.76 308.446C1133.46 310.387 1133.19 312.505 1132.95 314.79C1136.5 314.634 1140.85 313.98 1142.78 312.039C1145.15 309.577 1138.4 308.734 1133.77 308.446H1133.76Z" fill="#2E2E2E"/>
<path d="M1130.84 228.782C1130.84 228.782 1134.42 229.936 1137.18 228.483C1139.93 227.03 1142.52 226.598 1144.49 225.378C1146.47 224.158 1143.37 223.67 1141.67 223.736C1139.97 223.803 1138.05 223.869 1138.2 222.594C1138.35 221.307 1144.98 212.391 1144.99 210.583C1144.99 208.775 1143.47 209.884 1143.47 209.884C1143.47 209.884 1145.03 207.677 1144.32 206.823C1144.13 206.601 1143.34 206.38 1142.47 207.278C1140.53 209.296 1136.65 213.744 1136.65 213.744C1136.88 213.489 1141.26 207.666 1141.81 206.712C1142.52 205.459 1142.21 204.505 1141.47 204.117C1140.42 203.563 1134.74 210.605 1134.29 210.738C1134.29 210.738 1137.7 206.79 1137.15 205.359C1136.62 203.929 1134.33 206.291 1132.72 208.753C1131.25 211.015 1127.75 215.063 1126.47 217.515C1124.89 220.531 1124.52 222.905 1126.47 225.422C1128.44 227.94 1130.82 228.794 1130.82 228.794L1130.84 228.782Z" fill="#FFBBB5"/>
<path d="M1124.97 222.594C1124.97 222.594 1105.75 249.877 1104.26 260.357C1102.77 270.849 1126.47 301.337 1126.47 301.337L1143.01 293.363C1143.01 293.363 1120.07 266.69 1120.24 260.002C1120.41 253.326 1134.51 226.398 1134.51 226.398L1124.97 222.594Z" fill="#FFBBB5"/>
<path d="M1133.02 308.379C1129.81 305.806 1115.12 290.978 1115.12 290.978L1127.04 270.96C1127.04 270.96 1144.04 280.609 1153.98 288.028C1164.17 295.636 1143.32 310.353 1133.02 308.368V308.379Z" fill="#263238"/>
<path opacity="0.2" d="M1133.02 308.379C1129.81 305.806 1115.12 290.978 1115.12 290.978L1127.04 270.96C1127.04 270.96 1144.04 280.609 1153.98 288.028C1164.17 295.636 1143.32 310.353 1133.02 308.368V308.379Z" fill="white"/>
</g>
<path d="M151.614 253.664C151.978 253.845 157.169 259.57 154.893 260.661C152.617 261.753 149.52 261.296 149.52 261.296L151.614 253.664Z" fill="#D28572"/>
<path d="M128.805 265.857L122.498 284.362L139.238 293.158L143.576 268.509L128.811 265.857H128.805Z" fill="#FFBC96"/>
<path d="M143.237 269.36L141.03 282.51C135.526 275.591 133.231 267.884 133.231 267.884L136.328 267.709L143.237 269.36Z" fill="#D28572"/>
<path d="M151.51 245.156C151.51 245.156 155.269 271.106 148.053 273.057C140.836 275.006 128.811 265.857 128.811 265.857L132.419 244.255L142.943 240.805L151.51 245.156Z" fill="#FFBC96"/>
<path d="M151.511 245.156C151.511 245.156 144.746 242.456 140.235 254.005L137.981 257.905L126.855 256.704L128.658 242.603L138.429 237.802C138.429 237.802 149.404 230.451 151.507 245.153L151.511 245.156Z" fill="#1B1B43"/>
<path d="M138.883 239.306C138.883 239.306 133.222 235.256 124.2 244.258C115.181 253.257 119.789 271.159 129.41 270.959C138.786 270.765 136.175 261.509 135.573 259.857C134.971 258.206 138.88 239.306 138.88 239.306H138.883Z" fill="#1B1B43"/>
<path d="M140.111 261.371C142.183 260.177 142.757 257.298 141.393 254.94C140.028 252.583 137.243 251.639 135.17 252.833C133.098 254.026 132.524 256.905 133.889 259.263C135.253 261.621 138.039 262.565 140.111 261.371Z" fill="#FFBC96"/>
<path d="M138.874 258.972C138.874 258.956 138.855 257.399 137.915 256.545C137.432 256.107 136.764 255.922 135.937 255.997L135.852 255.062C136.956 254.962 137.865 255.228 138.551 255.854C139.799 256.989 139.811 258.891 139.811 258.969H138.871L138.874 258.972Z" fill="#1B1B43"/>
<path opacity="0.4" d="M145.849 263.348C147.84 263.348 149.454 261.738 149.454 259.751C149.454 257.764 147.84 256.154 145.849 256.154C143.858 256.154 142.244 257.764 142.244 259.751C142.244 261.738 143.858 263.348 145.849 263.348Z" fill="#FE5B52"/>
<path d="M123.408 248.763C124.639 244.461 122.141 239.977 117.829 238.749C113.517 237.521 109.024 240.014 107.793 244.316C106.563 248.619 109.06 253.102 113.372 254.33C117.684 255.558 122.178 253.066 123.408 248.763Z" fill="#1B1B43"/>
<path d="M104.268 375.23C100.274 378.696 107.447 504.179 109.917 542.228L133.573 541.874L129.689 380.16L104.265 375.227L104.268 375.23Z" fill="#B2B2B2"/>
<path d="M112.037 377.345L125.391 542.209L150.169 542.932C150.169 542.932 151.229 410.108 145.58 379.456L112.037 377.342V377.345Z" fill="#CBCBCB"/>
<path d="M148.052 457.653C147.996 457.653 147.94 457.653 147.883 457.647L145.419 457.44L145.498 456.505L147.962 456.712C148.479 456.752 148.952 456.418 149.078 455.914C149.156 455.598 149.087 455.27 148.889 455.013C148.692 454.757 148.391 454.603 148.065 454.6L140.118 454.475L140.134 453.537L148.081 453.662C148.695 453.671 149.263 453.956 149.636 454.444C150.009 454.929 150.14 455.551 149.99 456.145C149.764 457.043 148.965 457.659 148.052 457.659V457.653Z" fill="#1B1B43"/>
<path d="M124.159 279.87L125.808 272.529C125.808 272.529 133.754 276.229 138.814 280.108C140.949 281.744 142.281 284.209 142.469 286.886L142.933 293.49L128.811 289.614L124.162 279.867L124.159 279.87Z" fill="#FED3D1"/>
<path d="M213.022 361.489C205.047 361.098 199.191 358.292 194.661 353.973L194.426 341.877L215.141 343.522L220.909 348.924L213.025 361.489H213.022Z" fill="#D28572"/>
<path d="M163.705 358.083C163.705 358.083 172.533 356.087 173.357 339.174L165.589 345.28L163.705 358.08V358.083Z" fill="#1B1B43"/>
<path d="M124.159 279.87L136.987 286.495C141.676 288.92 145.065 293.277 146.222 298.419C149.843 314.519 156.379 352.249 149.814 393.316C149.814 393.316 123.331 392.494 97.9106 377.345L107.864 302.229C108.726 295.71 112.046 289.767 117.143 285.601L124.156 279.87H124.159Z" fill="#505050"/>
<path d="M165.824 338.824L189.028 339.85C191.389 339.953 193.708 340.56 195.784 341.686C199.019 343.441 202.1 345.577 205.028 348.098C206.737 349.571 207.154 352.061 206.041 354.023C205.752 354.536 205.37 354.986 204.912 355.358L202.078 357.67C201.837 357.867 201.58 358.039 201.304 358.183L197.26 360.335C196.649 360.66 195.975 360.86 195.282 360.885C193.113 360.97 188.266 360.616 184.417 356.378L154.758 353.031L159.701 341.933L165.821 338.82L165.824 338.824Z" fill="#FFBC96"/>
<path d="M215.139 343.522L201.145 338.924C200.468 338.702 199.75 338.658 199.054 338.802C195.722 339.487 185.913 341.758 187.599 344.404C188.834 346.34 198.662 343.287 198.662 343.287L215.139 343.522Z" fill="#D28572"/>
<path d="M181.42 357.432C180.558 356.844 180.335 355.671 180.925 354.808L183.06 351.689C183.649 350.829 184.825 350.607 185.69 351.195C186.552 351.783 186.774 352.956 186.185 353.819L184.05 356.938C183.461 357.798 182.285 358.02 181.42 357.432Z" fill="#D28572"/>
<path d="M184.113 358.999C183.251 358.411 183.028 357.238 183.618 356.375L186.467 352.215C187.057 351.354 188.232 351.132 189.097 351.72C189.959 352.308 190.182 353.481 189.593 354.345L186.743 358.505C186.154 359.365 184.978 359.587 184.113 358.999Z" fill="#D28572"/>
<path d="M187.38 360.501C186.518 359.913 186.295 358.74 186.884 357.876L189.019 354.758C189.608 353.897 190.784 353.675 191.649 354.263C192.511 354.852 192.734 356.025 192.145 356.888L190.01 360.006C189.42 360.867 188.245 361.089 187.38 360.501Z" fill="#D28572"/>
<path d="M193.705 356.94L193.591 356.862C192.866 356.368 191.877 356.554 191.382 357.277L189.858 359.504C189.363 360.227 189.549 361.214 190.274 361.708L190.388 361.785C191.112 362.279 192.101 362.094 192.596 361.37L194.121 359.144C194.616 358.421 194.43 357.434 193.705 356.94Z" fill="#D28572"/>
<path d="M135.46 293.258C135.46 293.258 143.698 288.56 145.818 333.891L173.357 339.177C168.752 344.892 165.526 351.192 163.705 358.086L140.253 355.571C136.987 355.221 133.915 353.838 131.488 351.627C128.595 348.987 126.817 345.346 126.516 341.445L123.454 301.716L135.46 293.261V293.258Z" fill="#505050"/>
<path d="M164.072 358.593L139.134 356.053C135.031 355.633 131.184 353.56 128.588 350.36C126.497 347.782 125.269 344.542 125.128 341.229L123.88 312.22L124.82 312.179L126.068 341.188C126.203 344.301 127.356 347.347 129.322 349.768C131.761 352.774 135.372 354.726 139.231 355.12L163.345 357.576C165.696 347.795 170.73 341.429 172.445 339.481L145.404 334.291L140.604 302.051L141.535 301.913L146.235 333.497L174.32 338.886L173.69 339.512C173.621 339.581 166.884 346.39 164.166 358.192L164.072 358.596V358.593Z" fill="#1B1B43"/>
<path d="M128.007 363.673L127.796 364.587L143.262 368.133L143.473 367.218L128.007 363.673Z" fill="#1B1B43"/>
<path d="M205.135 355.152L202.204 349.919L199.314 348.477L199.593 347.917L202.659 349.446L205.684 354.845L205.135 355.152Z" fill="#D28572"/>
<path d="M199.011 351.958L198.473 352.279L201.807 357.845L202.346 357.524L199.011 351.958Z" fill="#D28572"/>
<path d="M195.171 354.07L194.633 354.391L197.967 359.956L198.505 359.635L195.171 354.07Z" fill="#D28572"/>
<path d="M258.804 370.298C258.804 370.298 247.271 416.805 250.801 541.524H277.635C277.635 541.524 284.698 437.237 294.582 366.775L258.801 370.298H258.804Z" fill="#505050"/>
<path d="M319.773 366.072L340.84 538.352L313.181 542.935L279.835 366.416L319.773 366.072Z" fill="#505050"/>
<path d="M294.422 445.739L286.955 403.104L278.08 401.496L278.249 400.57L287.767 402.297L287.823 402.619L295.347 445.579L294.422 445.739Z" fill="#1B1B43"/>
<path d="M252.531 472.571C252.142 472.571 251.769 472.439 251.465 472.189C251.114 471.904 250.895 471.498 250.851 471.047C250.763 470.171 251.374 469.367 252.243 469.214L259.979 467.847L260.142 468.77L252.402 470.137C252.017 470.206 251.744 470.562 251.785 470.953C251.804 471.154 251.901 471.335 252.058 471.46C252.214 471.588 252.409 471.645 252.612 471.626L255.935 471.282L256.033 472.214L252.71 472.558C252.65 472.564 252.591 472.567 252.531 472.567V472.571Z" fill="#1B1B43"/>
<path d="M300.814 470.741C300.425 470.741 300.052 470.609 299.748 470.359C299.397 470.071 299.178 469.668 299.134 469.217C299.046 468.341 299.657 467.538 300.526 467.384L308.263 466.017L308.426 466.94L300.686 468.307C300.3 468.376 300.027 468.732 300.068 469.123C300.087 469.324 300.184 469.505 300.341 469.63C300.498 469.758 300.692 469.818 300.896 469.796L304.219 469.452L304.316 470.384L300.993 470.728C300.933 470.734 300.874 470.737 300.814 470.737V470.741Z" fill="#1B1B43"/>
<path d="M285.343 276.555L261.393 337.885L258.804 370.297L310.356 373.82L302.845 277.049L285.343 276.555Z" fill="white"/>
<path opacity="0.2" d="M259.772 330.653C263.76 330.954 267.675 330.566 271.459 329.743C275.237 328.899 278.876 327.585 282.312 325.842C283.98 324.879 285.716 324.022 287.268 322.862C288.058 322.308 288.911 321.829 289.657 321.21C290.403 320.591 291.168 319.99 291.939 319.393C292.735 318.823 293.425 318.132 294.146 317.469L296.328 315.486C297.729 314.106 299.052 312.636 300.526 311.26C299.504 312.968 298.422 314.663 297.253 316.299L295.319 318.617C294.676 319.396 294.011 320.159 293.256 320.835C290.422 323.74 287.043 326.093 283.459 328.066C279.788 329.874 275.842 331.176 271.785 331.661C267.751 332.158 263.578 331.976 259.772 330.65V330.653Z" fill="#1B1B43"/>
<path d="M285.343 276.555C285.343 276.555 275.45 290.943 265.951 395.453C265.898 396.025 265.243 396.335 264.773 396L249.036 384.743L262.807 295.254L285.343 276.555Z" fill="#B2B2B2"/>
<path d="M285.343 276.555L264.447 282.222C261.24 283.092 258.732 285.582 257.845 288.779L244.095 338.236L215.142 343.522L213.022 361.489L250.594 359.731C255.067 359.522 258.81 356.281 259.65 351.892L269.873 298.422L285.347 276.555H285.343Z" fill="#B2B2B2"/>
<path d="M302.846 277.049C302.846 277.049 291.852 352.653 292.165 395.819L326.649 394.255L326.714 321.676L302.846 277.049Z" fill="#B2B2B2"/>
<path d="M333.028 348.595L283.549 342.043C282.774 341.94 282.064 342.483 281.961 343.255L277.07 380.028C276.967 380.8 277.511 381.509 278.285 381.612L327.765 388.164C328.539 388.267 329.249 387.724 329.352 386.951L334.243 350.179C334.346 349.407 333.802 348.697 333.028 348.595Z" fill="#808080"/>
<path d="M308.428 367.998C308.406 367.998 308.385 367.998 308.363 367.995L302.005 367.154C301.873 367.135 301.757 367.069 301.676 366.963C301.594 366.857 301.56 366.728 301.579 366.597L302.209 361.874C302.228 361.742 302.293 361.627 302.4 361.545C302.504 361.464 302.635 361.433 302.767 361.448L309.124 362.29C309.256 362.309 309.372 362.374 309.453 362.481C309.535 362.587 309.569 362.715 309.551 362.847L308.921 367.57C308.902 367.701 308.836 367.817 308.729 367.898C308.642 367.964 308.538 368.002 308.428 368.002V367.998ZM302.218 366.547L308.312 367.354L308.905 362.89L302.811 362.083L302.218 366.547Z" fill="white"/>
<path d="M313.661 363L312.143 365.165C311.118 366.628 309.657 367.739 307.961 368.311C304.532 369.469 297.497 371.658 298.438 373.823C298.977 375.062 305.526 373.376 305.526 373.376C305.526 373.376 297.955 382.281 301.118 384.987C301.999 385.74 303.497 386.357 305.228 386.76C307.469 387.283 309.682 387.151 311.294 386.901C312.877 386.657 314.316 385.859 315.369 384.655C316.379 383.501 317.711 381.815 318.89 379.794C322.109 374.273 323.924 369.941 324.73 367.063L313.657 363.006L313.661 363Z" fill="#D28572"/>
<path d="M302.845 277.049L318.378 280.48C322.632 281.419 326.137 284.412 327.727 288.46L343.304 324.278C345.674 329.731 345.304 335.983 342.304 341.12L324.714 371.236L311.062 363.954L324.009 331.542L302.845 277.049Z" fill="#B2B2B2"/>
<path d="M292.946 288.075C288.149 288.075 284.604 285.285 284.557 285.247L285.146 284.515C285.209 284.565 291.478 289.48 298.419 285.72L298.867 286.545C296.792 287.668 294.776 288.075 292.942 288.075H292.946Z" fill="#1B1B43"/>
<path d="M260.968 298.464L248.579 384.672L249.51 384.805L261.898 298.597L260.968 298.464Z" fill="#666666"/>
<path d="M311.495 364.142L310.629 363.773L325.304 329.505L314.303 303.412L315.172 303.049L326.326 329.508L311.495 364.142Z" fill="#666666"/>
<path d="M305.074 379.913L301.522 385.125L302.04 385.476L305.593 380.265L305.074 379.913Z" fill="#925D4F"/>
<path d="M308.421 381.476L304.868 386.688L305.387 387.04L308.939 381.828L308.421 381.476Z" fill="#925D4F"/>
<path d="M313.333 381.569L309.779 386.783L310.297 387.135L313.851 381.921L313.333 381.569Z" fill="#925D4F"/>
<path d="M280.444 247.314C280.444 247.314 272.738 253.905 275.158 256.101C277.579 258.296 280.883 258.738 280.883 258.738L280.444 247.314Z" fill="#925D4F"/>
<path d="M303.341 254.971L302.852 277.055C294.099 286.114 285.347 276.555 285.347 276.555L285.974 272.025L286.25 270.011L287.491 260.99L287.817 258.6L296.946 256.473L303.341 254.971Z" fill="#D28572"/>
<path d="M297.811 259.914C297.811 259.914 294.927 265.607 285.974 272.025L286.25 270.011L287.491 260.99L296.87 258.975L297.811 259.914Z" fill="#925D4F"/>
<path d="M280.005 239.625C280.005 239.625 274.942 266.867 281.767 266.426C288.591 265.988 301.36 258.957 301.36 258.957L302.902 245.994L297.178 237.427L287.272 237.645L280.005 239.622V239.625Z" fill="#D28572"/>
<path d="M295.663 252.86C295.663 252.86 301.444 262.829 304.331 262.497C307.221 262.169 312.422 243.714 306.064 236.053C299.707 228.393 285.258 232.76 284.105 232.76C282.951 232.76 276.509 232.594 272.133 232.512C272.133 232.512 275.681 245.609 290.215 241.656C290.215 241.656 291.948 247.999 295.415 248.822L295.663 252.857V252.86Z" fill="#1B1B43"/>
<path d="M299.538 251.696C298.638 254.324 296.171 255.86 294.027 255.128C291.883 254.396 290.876 251.675 291.776 249.05C292.676 246.426 295.143 244.887 297.287 245.619C299.432 246.351 300.438 249.072 299.538 251.696Z" fill="#D28572"/>
<path opacity="0.3" d="M285.35 257.64C287.384 257.64 289.033 255.994 289.033 253.964C289.033 251.934 287.384 250.289 285.35 250.289C283.316 250.289 281.667 251.934 281.667 253.964C281.667 255.994 283.316 257.64 285.35 257.64Z" fill="#BE443D"/>
<path fill-rule="evenodd" clip-rule="evenodd" d="M1341.5 216.806L1340.17 215.784C1340.74 215.042 1341.31 214.297 1341.87 213.546L1343.22 214.544C1342.65 215.306 1342.08 216.058 1341.5 216.806Z" fill="#3D3C3B"/>
<path fill-rule="evenodd" clip-rule="evenodd" d="M1338.32 220.778L1337.03 219.705C1337.62 218.987 1338.21 218.262 1338.8 217.531L1340.11 218.577C1339.52 219.315 1338.92 220.047 1338.32 220.778Z" fill="#3D3C3B"/>
<path fill-rule="evenodd" clip-rule="evenodd" d="M1334.98 224.611L1333.74 223.48C1334.37 222.793 1334.98 222.095 1335.59 221.387L1336.87 222.485C1336.25 223.202 1335.62 223.91 1334.98 224.611H1334.98Z" fill="#3D3C3B"/>
<path fill-rule="evenodd" clip-rule="evenodd" d="M1350.2 204.241L1348.77 203.364L1349.5 202.168L1350.21 200.96L1351.66 201.806L1350.94 203.029L1350.2 204.241Z" fill="#3D3C3B"/>
<path fill-rule="evenodd" clip-rule="evenodd" d="M1347.46 208.527L1346.06 207.6C1346.32 207.21 1346.57 206.821 1346.83 206.428C1347.08 206.035 1347.34 205.646 1347.59 205.25L1349.01 206.154C1348.76 206.553 1348.5 206.946 1348.24 207.342C1347.98 207.742 1347.72 208.138 1347.46 208.527H1347.46Z" fill="#3D3C3B"/>
<path fill-rule="evenodd" clip-rule="evenodd" d="M1344.57 212.699L1343.2 211.72C1343.74 210.959 1344.29 210.197 1344.81 209.425L1346.2 210.376C1345.66 211.158 1345.11 211.927 1344.56 212.696L1344.57 212.699Z" fill="#3D3C3B"/>
<path fill-rule="evenodd" clip-rule="evenodd" d="M1357.41 190.754L1355.87 190.063L1356.45 188.79L1356.99 187.504L1358.54 188.15L1357.99 189.461L1357.41 190.754Z" fill="#3D3C3B"/>
<path fill-rule="evenodd" clip-rule="evenodd" d="M1355.2 195.349L1353.7 194.591C1354.11 193.754 1354.55 192.925 1354.94 192.078L1356.45 192.799C1356.06 193.659 1355.62 194.499 1355.2 195.349Z" fill="#3D3C3B"/>
<path fill-rule="evenodd" clip-rule="evenodd" d="M1352.8 199.822L1351.34 199.002C1351.57 198.6 1351.79 198.186 1352.02 197.777L1352.68 196.544L1354.17 197.33L1353.49 198.579C1353.26 198.992 1353.04 199.409 1352.8 199.822Z" fill="#3D3C3B"/>
<path fill-rule="evenodd" clip-rule="evenodd" d="M1362.6 176.364L1360.98 175.934L1361.32 174.583C1361.43 174.132 1361.55 173.685 1361.64 173.228L1363.28 173.601C1363.19 174.065 1363.06 174.522 1362.95 174.986L1362.6 176.364Z" fill="#3D3C3B"/>
<path fill-rule="evenodd" clip-rule="evenodd" d="M1361.14 181.253L1359.54 180.725C1359.7 180.285 1359.83 179.841 1359.97 179.397L1360.38 178.067L1361.99 178.541L1361.57 179.899C1361.43 180.352 1361.3 180.806 1361.14 181.253Z" fill="#3D3C3B"/>
<path fill-rule="evenodd" clip-rule="evenodd" d="M1359.4 186.027L1357.84 185.415C1358.19 184.551 1358.5 183.674 1358.83 182.801L1360.41 183.366C1360.08 184.253 1359.77 185.147 1359.41 186.024L1359.4 186.027Z" fill="#3D3C3B"/>
<path fill-rule="evenodd" clip-rule="evenodd" d="M1364.96 161.232L1363.28 161.164L1363.33 159.779L1363.32 158.394L1365 158.377L1365.01 159.806L1364.96 161.232Z" fill="#3D3C3B"/>
<path fill-rule="evenodd" clip-rule="evenodd" d="M1364.55 166.327L1362.88 166.128L1363.04 164.746C1363.1 164.286 1363.11 163.825 1363.15 163.365L1364.83 163.49C1364.79 163.964 1364.77 164.438 1364.71 164.909L1364.55 166.324V166.327Z" fill="#3D3C3B"/>
<path fill-rule="evenodd" clip-rule="evenodd" d="M1363.76 171.356L1362.11 171.034L1362.36 169.666C1362.4 169.436 1362.44 169.209 1362.48 168.982L1362.58 168.295L1364.25 168.549L1364.14 169.253C1364.1 169.487 1364.06 169.72 1364.02 169.954L1363.76 171.356Z" fill="#3D3C3B"/>
<path fill-rule="evenodd" clip-rule="evenodd" d="M1363.5 145.971L1361.86 146.364L1361.71 145.69L1361.52 145.026L1361.15 143.695L1362.76 143.211L1363.15 144.586L1363.34 145.273L1363.5 145.971Z" fill="#3D3C3B"/>
<path fill-rule="evenodd" clip-rule="evenodd" d="M1364.46 150.999L1362.79 151.233C1362.69 150.315 1362.5 149.414 1362.34 148.503L1363.98 148.182C1364.15 149.12 1364.35 150.051 1364.46 150.999H1364.46Z" fill="#3D3C3B"/>
<path fill-rule="evenodd" clip-rule="evenodd" d="M1364.94 156.078L1363.26 156.159L1363.22 155.469L1363.21 155.123L1363.18 154.778L1363.06 153.4L1364.73 153.234L1364.86 154.656L1364.89 155.011L1364.9 155.367L1364.94 156.078Z" fill="#3D3C3B"/>
<path fill-rule="evenodd" clip-rule="evenodd" d="M1357.75 131.753L1356.3 132.596L1355.95 131.997C1355.84 131.797 1355.72 131.597 1355.59 131.404L1354.84 130.239L1356.25 129.325L1357.03 130.527C1357.16 130.724 1357.28 130.934 1357.4 131.14L1357.75 131.76V131.753Z" fill="#3D3C3B"/>
<path fill-rule="evenodd" clip-rule="evenodd" d="M1360.12 136.29L1358.59 136.994L1358.31 136.365C1358.21 136.155 1358.1 135.955 1358 135.748L1357.37 134.516L1358.85 133.734L1359.5 135.003C1359.61 135.217 1359.72 135.423 1359.83 135.64L1360.12 136.29Z" fill="#3D3C3B"/>
<path fill-rule="evenodd" clip-rule="evenodd" d="M1362.04 141.02L1360.45 141.576L1360.23 140.919L1359.98 140.275L1359.47 138.989L1361.03 138.349L1361.55 139.68L1361.81 140.347L1362.04 141.02Z" fill="#3D3C3B"/>
<path fill-rule="evenodd" clip-rule="evenodd" d="M1348.4 119.597L1347.2 120.769L1346.72 120.268L1346.22 119.783L1345.21 118.818L1346.37 117.603L1347.4 118.588L1347.91 119.083L1348.4 119.597Z" fill="#3D3C3B"/>
<path fill-rule="evenodd" clip-rule="evenodd" d="M1351.84 123.383L1350.55 124.463C1349.94 123.765 1349.34 123.058 1348.72 122.37L1349.96 121.239C1350.6 121.944 1351.21 122.672 1351.84 123.386V123.383Z" fill="#3D3C3B"/>
<path fill-rule="evenodd" clip-rule="evenodd" d="M1354.96 127.419L1353.58 128.387L1352.78 127.26C1352.65 127.07 1352.5 126.891 1352.35 126.708L1351.92 126.163L1353.25 125.13L1353.69 125.689C1353.84 125.875 1353.99 126.061 1354.12 126.257L1354.95 127.419H1354.96Z" fill="#3D3C3B"/>
<path fill-rule="evenodd" clip-rule="evenodd" d="M1336.68 109.724L1335.72 111.105C1335.34 110.841 1334.97 110.577 1334.58 110.336C1334.19 110.093 1333.8 109.835 1333.41 109.602L1334.28 108.166C1334.69 108.41 1335.09 108.674 1335.49 108.928C1335.9 109.178 1336.29 109.453 1336.68 109.724Z" fill="#3D3C3B"/>
<path fill-rule="evenodd" clip-rule="evenodd" d="M1340.78 112.771L1339.74 114.088C1339.38 113.79 1339 113.512 1338.63 113.235L1337.51 112.398L1338.51 111.051L1339.65 111.904C1340.03 112.189 1340.42 112.47 1340.78 112.774L1340.78 112.771Z" fill="#3D3C3B"/>
<path fill-rule="evenodd" clip-rule="evenodd" d="M1344.68 116.049L1343.56 117.298L1342.51 116.377L1341.99 115.917L1341.45 115.473L1342.52 114.186L1343.08 114.633L1343.61 115.104L1344.68 116.049Z" fill="#3D3C3B"/>
<path fill-rule="evenodd" clip-rule="evenodd" d="M1322.73 103.27L1322.31 104.892L1321.64 104.716L1320.97 104.567C1320.52 104.468 1320.08 104.36 1319.62 104.285L1319.94 102.637C1320.41 102.714 1320.87 102.826 1321.34 102.931L1322.04 103.087L1322.73 103.27Z" fill="#3D3C3B"/>
<path fill-rule="evenodd" clip-rule="evenodd" d="M1327.62 104.865L1327 106.426C1326.58 106.26 1326.15 106.084 1325.71 105.941C1325.28 105.796 1324.85 105.63 1324.41 105.498L1324.92 103.9C1325.38 104.038 1325.83 104.208 1326.28 104.36C1326.73 104.509 1327.17 104.692 1327.62 104.865Z" fill="#3D3C3B"/>
<path fill-rule="evenodd" clip-rule="evenodd" d="M1332.27 107.021L1331.47 108.501C1330.67 108.054 1329.84 107.661 1329.01 107.269L1329.7 105.742C1330.57 106.148 1331.43 106.558 1332.27 107.021Z" fill="#3D3C3B"/>
<path fill-rule="evenodd" clip-rule="evenodd" d="M1307.42 101.936L1307.53 103.608L1306.15 103.72C1305.69 103.754 1305.23 103.815 1304.76 103.862L1304.57 102.193C1305.05 102.146 1305.52 102.085 1306 102.047L1307.42 101.932V101.936Z" fill="#3D3C3B"/>
<path fill-rule="evenodd" clip-rule="evenodd" d="M1312.55 101.841L1312.5 103.517C1311.58 103.497 1310.65 103.486 1309.73 103.517L1309.69 101.841C1310.64 101.81 1311.59 101.82 1312.55 101.841Z" fill="#3D3C3B"/>
<path fill-rule="evenodd" clip-rule="evenodd" d="M1317.65 102.264L1317.42 103.927C1316.97 103.852 1316.51 103.815 1316.05 103.761C1315.82 103.737 1315.59 103.71 1315.36 103.686L1314.67 103.635L1314.8 101.963L1315.52 102.017C1315.75 102.037 1315.99 102.068 1316.23 102.091C1316.7 102.146 1317.18 102.186 1317.65 102.264H1317.65Z" fill="#3D3C3B"/>
<path fill-rule="evenodd" clip-rule="evenodd" d="M1292.32 104.648L1292.77 106.266C1291.87 106.52 1290.98 106.774 1290.08 107.055L1289.59 105.45C1290.5 105.166 1291.41 104.909 1292.32 104.651L1292.32 104.648Z" fill="#3D3C3B"/>
<path fill-rule="evenodd" clip-rule="evenodd" d="M1297.28 103.415L1297.64 105.054C1296.73 105.261 1295.82 105.464 1294.92 105.697L1294.5 104.072C1295.42 103.835 1296.35 103.625 1297.28 103.415Z" fill="#3D3C3B"/>
<path fill-rule="evenodd" clip-rule="evenodd" d="M1302.29 102.491L1302.54 104.15L1301.16 104.37C1300.7 104.445 1300.25 104.536 1299.79 104.617L1299.48 102.968C1299.95 102.884 1300.41 102.792 1300.88 102.714L1302.29 102.488V102.491Z" fill="#3D3C3B"/>
<path fill-rule="evenodd" clip-rule="evenodd" d="M1277.86 109.646L1278.48 111.203C1277.62 111.555 1276.75 111.907 1275.88 112.27L1275.23 110.722C1276.1 110.357 1276.98 110.001 1277.86 109.646Z" fill="#3D3C3B"/>
<path fill-rule="evenodd" clip-rule="evenodd" d="M1282.61 107.814L1283.19 109.388C1282.31 109.707 1281.44 110.045 1280.56 110.38L1279.95 108.816C1280.84 108.477 1281.72 108.135 1282.61 107.814Z" fill="#3D3C3B"/>
<path fill-rule="evenodd" clip-rule="evenodd" d="M1287.4 106.141L1287.93 107.736C1287.48 107.878 1287.04 108.031 1286.6 108.179C1286.15 108.332 1285.71 108.477 1285.27 108.637L1284.71 107.052C1285.16 106.889 1285.61 106.744 1286.06 106.588C1286.5 106.436 1286.95 106.283 1287.4 106.138V106.141Z" fill="#3D3C3B"/>
<path fill-rule="evenodd" clip-rule="evenodd" d="M1263.86 115.751L1264.57 117.274L1262 118.466L1261.29 116.946L1263.86 115.751Z" fill="#3D3C3B"/>
<path fill-rule="evenodd" clip-rule="evenodd" d="M1268.49 113.645L1269.17 115.178L1266.6 116.34L1265.9 114.813L1268.49 113.645Z" fill="#3D3C3B"/>
<path fill-rule="evenodd" clip-rule="evenodd" d="M1273.13 111.609L1273.79 113.15C1272.93 113.519 1272.06 113.895 1271.2 114.271L1270.53 112.737C1271.39 112.358 1272.26 111.979 1273.13 111.609Z" fill="#3D3C3B"/>
<path fill-rule="evenodd" clip-rule="evenodd" d="M1250.07 122.262L1250.79 123.775L1248.23 124.988L1247.51 123.474L1250.07 122.262Z" fill="#3D3C3B"/>
<path fill-rule="evenodd" clip-rule="evenodd" d="M1254.65 120.085L1255.38 121.598L1252.82 122.814L1252.1 121.297L1254.65 120.085Z" fill="#3D3C3B"/>
<path fill-rule="evenodd" clip-rule="evenodd" d="M1259.23 117.918L1259.95 119.435L1257.39 120.643L1256.67 119.126L1259.23 117.918Z" fill="#3D3C3B"/>
<path fill-rule="evenodd" clip-rule="evenodd" d="M1236.26 128.672L1236.95 130.202L1234.35 131.35L1233.67 129.813L1236.26 128.672Z" fill="#3D3C3B"/>
<path fill-rule="evenodd" clip-rule="evenodd" d="M1240.87 126.576L1241.58 128.099L1239 129.278L1238.3 127.751L1240.87 126.576Z" fill="#3D3C3B"/>
<path fill-rule="evenodd" clip-rule="evenodd" d="M1245.45 124.442L1246.17 125.963L1243.6 127.161L1242.89 125.641L1245.45 124.442Z" fill="#3D3C3B"/>
<path fill-rule="evenodd" clip-rule="evenodd" d="M1222.22 134.533L1222.83 136.101C1221.95 136.446 1221.05 136.768 1220.17 137.103L1219.58 135.528C1220.47 135.197 1221.35 134.875 1222.22 134.533Z" fill="#3D3C3B"/>
<path fill-rule="evenodd" clip-rule="evenodd" d="M1226.93 132.67L1227.57 134.225C1226.69 134.584 1225.81 134.936 1224.93 135.284L1224.31 133.724C1225.19 133.378 1226.06 133.029 1226.93 132.67H1226.93Z" fill="#3D3C3B"/>
<path fill-rule="evenodd" clip-rule="evenodd" d="M1231.59 130.72L1232.25 132.261C1231.38 132.63 1230.51 133.006 1229.63 133.368L1228.98 131.821C1229.85 131.458 1230.72 131.089 1231.59 130.72Z" fill="#3D3C3B"/>
<path fill-rule="evenodd" clip-rule="evenodd" d="M1207.83 139.375L1208.29 140.99C1207.37 141.244 1206.46 141.505 1205.54 141.742L1205.11 140.12C1206.02 139.886 1206.93 139.629 1207.83 139.378V139.375Z" fill="#3D3C3B"/>
<path fill-rule="evenodd" clip-rule="evenodd" d="M1212.67 137.909L1213.18 139.507C1212.28 139.802 1211.37 140.076 1210.46 140.357L1209.98 138.748C1210.88 138.474 1211.77 138.203 1212.67 137.909Z" fill="#3D3C3B"/>
<path fill-rule="evenodd" clip-rule="evenodd" d="M1217.44 136.297L1218 137.878C1217.11 138.19 1216.21 138.508 1215.31 138.806L1214.78 137.215C1215.67 136.92 1216.56 136.605 1217.44 136.297Z" fill="#3D3C3B"/>
<path fill-rule="evenodd" clip-rule="evenodd" d="M1193.03 142.636L1193.28 144.295L1191.86 144.501C1191.39 144.566 1190.92 144.623 1190.44 144.681L1190.24 143.015C1190.71 142.954 1191.17 142.903 1191.64 142.835L1193.03 142.632V142.636Z" fill="#3D3C3B"/>
<path fill-rule="evenodd" clip-rule="evenodd" d="M1198 141.765L1198.33 143.411C1197.86 143.513 1197.39 143.59 1196.92 143.678C1196.45 143.763 1195.99 143.858 1195.52 143.932L1195.23 142.28C1195.69 142.206 1196.15 142.111 1196.61 142.029C1197.07 141.941 1197.54 141.864 1197.99 141.765H1198Z" fill="#3D3C3B"/>
<path fill-rule="evenodd" clip-rule="evenodd" d="M1202.91 140.675L1203.31 142.304L1201.92 142.636L1200.53 142.947L1200.17 141.308L1201.54 141.004L1202.91 140.675Z" fill="#3D3C3B"/>
<path fill-rule="evenodd" clip-rule="evenodd" d="M1177.93 143.706L1177.91 145.385C1176.95 145.385 1175.99 145.334 1175.04 145.3L1175.12 143.624C1176.06 143.658 1176.99 143.706 1177.93 143.709V143.706Z" fill="#3D3C3B"/>
<path fill-rule="evenodd" clip-rule="evenodd" d="M1182.97 143.631L1183.04 145.307C1182.09 145.341 1181.14 145.382 1180.18 145.385L1180.16 143.706C1181.1 143.706 1182.03 143.661 1182.97 143.631Z" fill="#3D3C3B"/>
<path fill-rule="evenodd" clip-rule="evenodd" d="M1187.98 143.269L1188.15 144.938C1187.68 144.989 1187.2 145.029 1186.73 145.067L1185.3 145.178L1185.18 143.502L1186.58 143.391C1187.05 143.353 1187.52 143.313 1187.98 143.262L1187.98 143.269Z" fill="#3D3C3B"/>
<path fill-rule="evenodd" clip-rule="evenodd" d="M1162.91 142.074L1162.57 143.716C1162.1 143.628 1161.63 143.519 1161.16 143.411L1159.77 143.086L1160.17 141.457L1161.54 141.776C1161.99 141.881 1162.45 141.989 1162.91 142.074Z" fill="#3D3C3B"/>
<path fill-rule="evenodd" clip-rule="evenodd" d="M1167.87 142.933L1167.64 144.596L1166.22 144.389L1164.8 144.146L1165.1 142.493L1166.48 142.734L1167.87 142.933Z" fill="#3D3C3B"/>
<path fill-rule="evenodd" clip-rule="evenodd" d="M1172.86 143.482L1172.73 145.155L1171.31 145.026L1170.59 144.962L1169.88 144.88L1170.07 143.211L1170.76 143.292L1171.46 143.357L1172.86 143.482Z" fill="#3D3C3B"/>
<path fill-rule="evenodd" clip-rule="evenodd" d="M1148.48 137.594L1147.83 139.141C1146.95 138.786 1146.08 138.386 1145.21 137.993L1145.91 136.47C1146.77 136.852 1147.62 137.245 1148.49 137.594H1148.48Z" fill="#3D3C3B"/>
<path fill-rule="evenodd" clip-rule="evenodd" d="M1153.19 139.392L1152.64 140.976L1151.28 140.499L1149.94 139.991L1150.55 138.423L1151.86 138.924L1153.19 139.392Z" fill="#3D3C3B"/>
<path fill-rule="evenodd" clip-rule="evenodd" d="M1157.98 140.885L1157.53 142.503L1156.15 142.104L1155.46 141.904L1154.78 141.684L1155.29 140.086L1155.96 140.299L1156.63 140.496L1157.98 140.885Z" fill="#3D3C3B"/>
<path fill-rule="evenodd" clip-rule="evenodd" d="M1135.08 130.585L1134.18 132.003C1133.77 131.756 1133.38 131.492 1132.98 131.228L1131.79 130.439L1132.73 129.048L1133.9 129.823C1134.29 130.08 1134.68 130.341 1135.08 130.585H1135.08Z" fill="#3D3C3B"/>
<path fill-rule="evenodd" clip-rule="evenodd" d="M1139.41 133.165L1138.59 134.628C1138.17 134.401 1137.76 134.157 1137.35 133.917L1136.11 133.192L1136.98 131.753L1138.19 132.464C1138.6 132.701 1139 132.941 1139.41 133.161L1139.41 133.165Z" fill="#3D3C3B"/>
<path fill-rule="evenodd" clip-rule="evenodd" d="M1143.86 135.501L1143.12 137.008L1142.48 136.696L1141.84 136.368L1140.57 135.711L1141.35 134.228L1142.61 134.871L1143.23 135.196L1143.86 135.501Z" fill="#3D3C3B"/>
<path fill-rule="evenodd" clip-rule="evenodd" d="M1122.9 121.592L1121.82 122.871C1121.09 122.255 1120.36 121.646 1119.66 121.006L1120.77 119.75C1121.47 120.379 1122.18 120.982 1122.9 121.588V121.592Z" fill="#3D3C3B"/>
<path fill-rule="evenodd" clip-rule="evenodd" d="M1126.82 124.768L1125.79 126.092C1125.41 125.797 1125.03 125.516 1124.66 125.215L1123.56 124.317L1124.62 123.017L1125.71 123.901C1126.08 124.199 1126.45 124.476 1126.82 124.768H1126.82Z" fill="#3D3C3B"/>
<path fill-rule="evenodd" clip-rule="evenodd" d="M1130.86 127.761L1129.89 129.132L1129.31 128.722L1128.73 128.299L1127.58 127.456L1128.59 126.112L1129.72 126.941L1130.29 127.358L1130.86 127.761Z" fill="#3D3C3B"/>
<path fill-rule="evenodd" clip-rule="evenodd" d="M1111.89 111.169L1110.67 112.324C1110.02 111.633 1109.36 110.953 1108.73 110.245L1109.97 109.111C1110.6 109.812 1111.25 110.485 1111.89 111.166V111.169Z" fill="#3D3C3B"/>
<path fill-rule="evenodd" clip-rule="evenodd" d="M1115.43 114.772L1114.25 115.967C1113.91 115.639 1113.57 115.304 1113.24 114.965L1112.24 113.953L1113.44 112.778L1114.43 113.78C1114.76 114.115 1115.09 114.447 1115.43 114.772H1115.43Z" fill="#3D3C3B"/>
<path fill-rule="evenodd" clip-rule="evenodd" d="M1119.08 118.236L1117.94 119.472C1117.25 118.825 1116.55 118.182 1115.86 117.528L1117.02 116.316C1117.7 116.963 1118.39 117.596 1119.08 118.236Z" fill="#3D3C3B"/>
<path fill-rule="evenodd" clip-rule="evenodd" d="M1101.92 99.7313L1100.61 100.781C1100.01 100.043 1099.44 99.2912 1098.85 98.5496L1100.18 97.5169C1100.76 98.255 1101.33 99 1101.92 99.7313Z" fill="#3D3C3B"/>
<path fill-rule="evenodd" clip-rule="evenodd" d="M1105.14 103.629L1103.85 104.712C1103.24 103.988 1102.63 103.27 1102.03 102.528L1103.33 101.465C1103.92 102.2 1104.53 102.911 1105.14 103.629Z" fill="#3D3C3B"/>
<path fill-rule="evenodd" clip-rule="evenodd" d="M1108.44 107.435L1107.18 108.552L1105.31 106.415L1106.58 105.318L1108.44 107.435Z" fill="#3D3C3B"/>
<path fill-rule="evenodd" clip-rule="evenodd" d="M1092.84 87.5621L1091.45 88.5203L1089.85 86.1772L1091.24 85.2359L1092.84 87.5621Z" fill="#3D3C3B"/>
<path fill-rule="evenodd" clip-rule="evenodd" d="M1095.78 91.6761L1094.41 92.6614C1094.14 92.2788 1093.85 91.8995 1093.58 91.5135L1092.76 90.3555L1094.13 89.3837L1094.94 90.535C1095.22 90.9176 1095.5 91.2934 1095.78 91.6727V91.6761Z" fill="#3D3C3B"/>
<path fill-rule="evenodd" clip-rule="evenodd" d="M1098.79 95.7189L1097.45 96.7347C1096.88 95.9796 1096.3 95.2279 1095.74 94.4661L1097.09 93.4672C1097.65 94.2223 1098.22 94.9672 1098.79 95.7155V95.7189Z" fill="#3D3C3B"/>
<path d="M1088.5 96.0779L1083.7 88.9232L1085.44 85.8961C1085.44 85.8961 1089.07 86.9898 1089.13 87.3216C1089.18 87.6501 1088.85 91.8758 1088.79 92.6174C1088.72 93.3555 1088.49 96.0813 1088.49 96.0813L1088.5 96.0779Z" fill="#E9A700"/>
<path d="M1065.13 60.1285C1065.33 59.9761 1065.6 59.9592 1065.82 60.0777L1102.51 80.4954C1102.74 80.6207 1102.87 80.8679 1102.84 81.1218C1102.81 81.3758 1102.63 81.5891 1102.38 81.6602L1094.88 83.8035C1094.29 83.9694 1093.82 84.4096 1093.61 84.9785L1089.6 95.9119C1089.51 96.1625 1089.27 96.3284 1089 96.3284C1088.74 96.3284 1088.5 96.1591 1088.41 95.9051L1085.86 88.7403C1085.8 88.5473 1085.64 88.4017 1085.44 88.3442C1085.24 88.2866 1085.04 88.3272 1084.87 88.4525L1074.57 96.4706C1074.43 96.579 1074.25 96.623 1074.08 96.5959L1073.97 96.5688C1073.77 96.4977 1073.62 96.3284 1073.56 96.1219L1064.9 60.782C1064.84 60.5382 1064.93 60.2809 1065.13 60.1285Z" fill="#FFB700"/>
<path d="M1065.43 60.01L1094.23 84.1489C1093.96 84.3656 1093.74 84.6467 1093.61 84.9819L1089.6 95.9153C1089.51 96.1659 1089.27 96.3318 1089 96.3318C1088.74 96.3318 1088.5 96.1625 1088.41 95.9085L1085.87 88.7437L1085.78 88.6151V88.588L1065.14 60.1251C1065.22 60.0574 1065.33 60.0202 1065.43 60.0066V60.01Z" fill="#DB9D00"/>
<path fill-rule="evenodd" clip-rule="evenodd" d="M43.3986 509.001L42.4038 507.301L43.1082 506.896C43.3429 506.761 43.5777 506.63 43.8045 506.475L45.1734 505.593L46.2518 507.241L44.8431 508.151C44.6123 508.306 44.3696 508.445 44.1269 508.584L43.4026 509.005L43.3986 509.001Z" fill="#3D3C3B"/>
<path fill-rule="evenodd" clip-rule="evenodd" d="M57.665 498.032L56.2842 496.622L56.8771 496.058L57.4422 495.47L58.5723 494.291L60.0049 495.645L58.8469 496.848L58.2699 497.452L57.665 498.032Z" fill="#3D3C3B"/>
<path fill-rule="evenodd" clip-rule="evenodd" d="M53.224 502.067L51.9546 500.561C52.7743 499.843 53.602 499.144 54.4098 498.413L55.7429 499.862C54.9152 500.613 54.0636 501.332 53.224 502.067Z" fill="#3D3C3B"/>
<path fill-rule="evenodd" clip-rule="evenodd" d="M48.4844 505.72L47.3423 504.116L48.6674 503.167C48.8902 503.012 49.1012 502.841 49.316 502.674L49.9567 502.17L51.1744 503.719L50.5178 504.239C50.2989 504.41 50.0801 504.588 49.8532 504.747L48.4923 505.72H48.4844Z" fill="#3D3C3B"/>
<path fill-rule="evenodd" clip-rule="evenodd" d="M69.2447 484.287L67.6211 483.171C67.9275 482.726 68.2379 482.285 68.5204 481.824C68.8069 481.368 69.1094 480.919 69.3839 480.454L71.0712 481.471C70.7847 481.951 70.4743 482.416 70.1758 482.893C69.8814 483.369 69.563 483.826 69.2407 484.287H69.2447Z" fill="#3D3C3B"/>
<path fill-rule="evenodd" clip-rule="evenodd" d="M65.671 489.096L64.123 487.877C64.4732 487.46 64.7956 487.019 65.1219 486.582L66.1048 485.272L67.6925 486.439L66.6937 487.774C66.3634 488.218 66.0331 488.667 65.675 489.096H65.671Z" fill="#3D3C3B"/>
<path fill-rule="evenodd" clip-rule="evenodd" d="M61.8273 493.663L60.355 492.353L61.4374 491.125L61.9786 490.514L62.4959 489.878L64.012 491.137L63.4867 491.785L62.9336 492.408L61.8273 493.663Z" fill="#3D3C3B"/>
<path fill-rule="evenodd" clip-rule="evenodd" d="M76.7973 467.948L74.8872 467.456L75.0941 466.673L75.2692 465.887C75.3846 465.363 75.508 464.839 75.5995 464.307L77.5374 464.672C77.4459 465.224 77.3146 465.768 77.1952 466.316L77.0122 467.134L76.8013 467.948H76.7973Z" fill="#3D3C3B"/>
<path fill-rule="evenodd" clip-rule="evenodd" d="M74.9351 473.675L73.1006 472.956C73.2956 472.456 73.4985 471.955 73.6657 471.447C73.8368 470.939 74.0318 470.434 74.183 469.918L76.0612 470.514C75.902 471.05 75.7031 471.574 75.524 472.106C75.3489 472.639 75.134 473.159 74.9351 473.679V473.675Z" fill="#3D3C3B"/>
<path fill-rule="evenodd" clip-rule="evenodd" d="M72.4084 479.12L70.6694 478.191C71.1907 477.249 71.6523 476.272 72.11 475.299L73.9046 476.114C73.4271 477.126 72.9456 478.139 72.4084 479.12Z" fill="#3D3C3B"/>
<path fill-rule="evenodd" clip-rule="evenodd" d="M78.3332 450.021L76.3674 450.152L76.2321 448.532C76.1924 447.992 76.1167 447.452 76.061 446.916L78.0189 446.689C78.0746 447.245 78.1502 447.797 78.194 448.353L78.3293 450.021H78.3332Z" fill="#3D3C3B"/>
<path fill-rule="evenodd" clip-rule="evenodd" d="M78.4571 456.026L76.4873 455.971C76.5072 454.89 76.5191 453.81 76.4873 452.73L78.4571 452.678C78.4969 453.794 78.4849 454.91 78.4611 456.03L78.4571 456.026Z" fill="#3D3C3B"/>
<path fill-rule="evenodd" clip-rule="evenodd" d="M77.9714 461.999L76.0176 461.733C76.1051 461.201 76.1489 460.665 76.2086 460.129C76.2364 459.863 76.2683 459.592 76.2922 459.322L76.3518 458.516L78.3176 458.663L78.254 459.501C78.2301 459.779 78.1943 460.057 78.1664 460.335C78.1028 460.891 78.055 461.447 77.9675 462.003L77.9714 461.999Z" fill="#3D3C3B"/>
<path fill-rule="evenodd" clip-rule="evenodd" d="M75.114 432.353L73.2158 432.885C72.9134 431.836 72.615 430.784 72.2847 429.739L74.1709 429.16C74.5051 430.22 74.8115 431.288 75.118 432.353H75.114Z" fill="#3D3C3B"/>
<path fill-rule="evenodd" clip-rule="evenodd" d="M76.5748 438.151L74.6488 438.576C74.4021 437.511 74.1633 436.451 73.8848 435.395L75.7948 434.906C76.0774 435.982 76.3241 437.067 76.5748 438.151Z" fill="#3D3C3B"/>
<path fill-rule="evenodd" clip-rule="evenodd" d="M77.6691 444.021L75.7192 444.315L75.4566 442.706C75.369 442.17 75.2616 441.638 75.1621 441.102L77.1 440.732C77.1995 441.28 77.311 441.824 77.3985 442.372L77.6651 444.021H77.6691Z" fill="#3D3C3B"/>
<path fill-rule="evenodd" clip-rule="evenodd" d="M69.213 415.431L67.3825 416.169C66.9687 415.153 66.5509 414.136 66.1211 413.123L67.9397 412.361C68.3734 413.381 68.7912 414.406 69.2091 415.431H69.213Z" fill="#3D3C3B"/>
<path fill-rule="evenodd" clip-rule="evenodd" d="M71.3738 420.99L69.5234 421.674C69.1454 420.645 68.7475 419.62 68.3535 418.596L70.192 417.881C70.5899 418.913 70.9958 419.946 71.3778 420.99H71.3738Z" fill="#3D3C3B"/>
<path fill-rule="evenodd" clip-rule="evenodd" d="M73.3475 426.598L71.4732 427.218C71.3061 426.693 71.127 426.177 70.9479 425.661C70.7689 425.145 70.5977 424.624 70.4067 424.108L72.2651 423.453C72.4561 423.973 72.6312 424.501 72.8142 425.021C72.9933 425.546 73.1764 426.07 73.3475 426.598Z" fill="#3D3C3B"/>
<path fill-rule="evenodd" clip-rule="evenodd" d="M62.0064 399.06L60.2157 399.89L58.811 396.896L60.5938 396.058L62.0064 399.06Z" fill="#3D3C3B"/>
<path fill-rule="evenodd" clip-rule="evenodd" d="M64.4893 404.469L62.6907 405.276L61.3218 402.273L63.1125 401.447L64.4893 404.469Z" fill="#3D3C3B"/>
<path fill-rule="evenodd" clip-rule="evenodd" d="M66.893 409.898L65.0824 410.677C64.6487 409.668 64.203 408.659 63.7573 407.651L65.56 406.856C66.0096 407.869 66.4553 408.882 66.893 409.898Z" fill="#3D3C3B"/>
<path fill-rule="evenodd" clip-rule="evenodd" d="M54.3261 382.933L52.5473 383.782L51.1147 380.788L52.8975 379.946L54.3261 382.933Z" fill="#3D3C3B"/>
<path fill-rule="evenodd" clip-rule="evenodd" d="M56.8969 388.294L55.1181 389.144L53.6855 386.153L55.4603 385.303L56.8969 388.294Z" fill="#3D3C3B"/>
<path fill-rule="evenodd" clip-rule="evenodd" d="M59.4515 393.643L57.6687 394.485L56.2441 391.495L58.0229 390.649L59.4515 393.643Z" fill="#3D3C3B"/>
<path fill-rule="evenodd" clip-rule="evenodd" d="M46.7655 366.777L44.9668 367.587L43.6099 364.553L45.4165 363.755L46.7655 366.777Z" fill="#3D3C3B"/>
<path fill-rule="evenodd" clip-rule="evenodd" d="M49.2366 372.174L47.4459 373.004L46.0571 369.986L47.8518 369.168L49.2366 372.174Z" fill="#3D3C3B"/>
<path fill-rule="evenodd" clip-rule="evenodd" d="M51.7516 377.531L49.9689 378.373L48.5522 375.371L50.339 374.537L51.7516 377.531Z" fill="#3D3C3B"/>
<path fill-rule="evenodd" clip-rule="evenodd" d="M39.8455 350.363L38.0071 351.074C37.6012 350.041 37.2191 348.997 36.8252 347.96L38.6756 347.277C39.0656 348.31 39.4476 349.342 39.8495 350.367L39.8455 350.363Z" fill="#3D3C3B"/>
<path fill-rule="evenodd" clip-rule="evenodd" d="M42.0457 355.867L40.2231 356.614C39.8013 355.589 39.3835 354.561 38.9736 353.528L40.8081 352.802C41.214 353.83 41.6279 354.851 42.0497 355.867H42.0457Z" fill="#3D3C3B"/>
<path fill-rule="evenodd" clip-rule="evenodd" d="M44.3458 361.312L42.5352 362.095C42.0975 361.074 41.6558 360.057 41.23 359.037L43.0485 358.27C43.4743 359.287 43.9121 360.3 44.3498 361.312H44.3458Z" fill="#3D3C3B"/>
<path fill-rule="evenodd" clip-rule="evenodd" d="M34.1229 333.528L32.2287 334.072C31.9303 332.996 31.6199 331.932 31.3413 330.852L33.2474 330.347C33.522 331.412 33.8284 332.468 34.1229 333.528Z" fill="#3D3C3B"/>
<path fill-rule="evenodd" clip-rule="evenodd" d="M35.858 339.184L33.9838 339.791C33.6336 338.735 33.3112 337.67 32.981 336.61L34.8672 336.038C35.1935 337.091 35.5118 338.143 35.858 339.188V339.184Z" fill="#3D3C3B"/>
<path fill-rule="evenodd" clip-rule="evenodd" d="M37.7642 344.771L35.9058 345.431C35.5397 344.382 35.1617 343.338 34.8115 342.281L36.6778 341.65C37.024 342.694 37.3981 343.731 37.7642 344.771Z" fill="#3D3C3B"/>
<path fill-rule="evenodd" clip-rule="evenodd" d="M30.2591 316.205L28.3093 316.503L28.0625 314.847C27.983 314.295 27.9193 313.739 27.8477 313.187L29.8055 312.945C29.8771 313.485 29.9408 314.033 30.0164 314.577L30.2591 316.205Z" fill="#3D3C3B"/>
<path fill-rule="evenodd" clip-rule="evenodd" d="M31.2935 322.019L29.3595 322.408C29.2402 321.864 29.1447 321.316 29.0412 320.768C28.9417 320.22 28.8263 319.676 28.7388 319.124L30.6807 318.783C30.7682 319.327 30.8797 319.863 30.9791 320.403C31.0826 320.943 31.1781 321.483 31.2935 322.019Z" fill="#3D3C3B"/>
<path fill-rule="evenodd" clip-rule="evenodd" d="M32.5868 327.77L30.6727 328.242L30.2788 326.618L29.9087 324.986L31.8347 324.561L32.1968 326.169L32.5868 327.77Z" fill="#3D3C3B"/>
<path fill-rule="evenodd" clip-rule="evenodd" d="M28.9738 298.54L27 298.516C27 297.397 27.0597 296.277 27.0955 295.161L29.0653 295.252C29.0295 296.348 28.9738 297.44 28.9738 298.54Z" fill="#3D3C3B"/>
<path fill-rule="evenodd" clip-rule="evenodd" d="M29.0692 304.438L27.0994 304.529C27.0596 303.413 27.0079 302.297 27.0039 301.177L28.9777 301.15C28.9777 302.25 29.0334 303.342 29.0732 304.438H29.0692Z" fill="#3D3C3B"/>
<path fill-rule="evenodd" clip-rule="evenodd" d="M29.5072 310.304L27.5454 310.502C27.4817 309.946 27.434 309.39 27.3902 308.834L27.2549 307.162L29.2207 307.023L29.356 308.663C29.3997 309.211 29.4475 309.759 29.5112 310.3L29.5072 310.304Z" fill="#3D3C3B"/>
<path fill-rule="evenodd" clip-rule="evenodd" d="M30.8558 280.951L28.9258 280.554C29.0292 280.006 29.1566 279.462 29.2799 278.914L29.658 277.273L31.572 277.742L31.202 279.343C31.0786 279.875 30.9552 280.411 30.8518 280.947L30.8558 280.951Z" fill="#3D3C3B"/>
<path fill-rule="evenodd" clip-rule="evenodd" d="M29.8572 286.761L27.9033 286.487L28.1421 284.827L28.4246 283.171L30.3665 283.513L30.092 285.133L29.8572 286.761Z" fill="#3D3C3B"/>
<path fill-rule="evenodd" clip-rule="evenodd" d="M29.2246 292.603L27.2588 292.456L27.406 290.784L27.4777 289.946L27.5732 289.116L29.535 289.331L29.4395 290.149L29.3678 290.967L29.2246 292.603Z" fill="#3D3C3B"/>
<path fill-rule="evenodd" clip-rule="evenodd" d="M36.0926 264.053L34.27 263.298C34.6879 262.262 35.1534 261.241 35.6111 260.22L37.4057 261.038C36.9561 262.039 36.4984 263.04 36.0926 264.057V264.053Z" fill="#3D3C3B"/>
<path fill-rule="evenodd" clip-rule="evenodd" d="M33.9918 269.565L32.1255 268.922L32.6826 267.337L33.2795 265.768L35.1219 266.475L34.537 268.012L33.9918 269.565Z" fill="#3D3C3B"/>
<path fill-rule="evenodd" clip-rule="evenodd" d="M32.2449 275.177L30.3428 274.656L30.8084 273.04L31.0431 272.238L31.2978 271.435L33.18 272.023L32.9293 272.81L32.6985 273.596L32.2449 275.177Z" fill="#3D3C3B"/>
<path fill-rule="evenodd" clip-rule="evenodd" d="M44.3021 248.358L42.6348 247.305C42.9253 246.829 43.2356 246.364 43.5421 245.899L44.4653 244.501L46.1008 245.598L45.1935 246.972C44.8911 247.428 44.5886 247.889 44.3021 248.358Z" fill="#3D3C3B"/>
<path fill-rule="evenodd" clip-rule="evenodd" d="M41.2777 253.425L39.5547 252.464C39.8213 251.972 40.1038 251.487 40.3864 251.007L41.234 249.561L42.9252 250.574L42.0935 251.992C41.815 252.468 41.5364 252.937 41.2777 253.421V253.425Z" fill="#3D3C3B"/>
<path fill-rule="evenodd" clip-rule="evenodd" d="M38.5438 258.64L36.769 257.774L37.1351 257.019L37.5172 256.277L38.2892 254.783L40.0321 255.705L39.276 257.166L38.898 257.897L38.5438 258.64Z" fill="#3D3C3B"/>
<path fill-rule="evenodd" clip-rule="evenodd" d="M54.8436 234.073L53.3354 232.806C54.0557 231.956 54.772 231.102 55.5241 230.276L57.0004 231.579C56.2603 232.393 55.5559 233.239 54.8436 234.077V234.073Z" fill="#3D3C3B"/>
<path fill-rule="evenodd" clip-rule="evenodd" d="M51.119 238.671L49.5591 237.468C49.9013 237.027 50.2356 236.579 50.5858 236.146L51.6403 234.847L53.1723 236.09L52.1337 237.369C51.7835 237.794 51.4572 238.239 51.119 238.671Z" fill="#3D3C3B"/>
<path fill-rule="evenodd" clip-rule="evenodd" d="M47.6132 243.409L45.9976 242.273L46.4751 241.586L46.9725 240.911L47.9634 239.565L49.5471 240.737L48.5722 242.063L48.0827 242.73L47.6132 243.409Z" fill="#3D3C3B"/>
<path fill-rule="evenodd" clip-rule="evenodd" d="M67.068 221.166L65.707 219.744C66.5148 218.981 67.3147 218.203 68.1424 217.464L69.4794 218.91C68.6597 219.644 67.8678 220.411 67.068 221.166Z" fill="#3D3C3B"/>
<path fill-rule="evenodd" clip-rule="evenodd" d="M62.8418 225.316L61.4331 223.938C61.8191 223.536 62.2131 223.143 62.611 222.754L63.8008 221.583L65.1816 222.988L64.0077 224.148C63.6138 224.533 63.2238 224.918 62.8418 225.32V225.316Z" fill="#3D3C3B"/>
<path fill-rule="evenodd" clip-rule="evenodd" d="M58.7792 229.597L57.3228 228.27C58.0828 227.456 58.8349 226.638 59.6029 225.828L61.0315 227.182C60.2754 227.984 59.5313 228.791 58.7792 229.597Z" fill="#3D3C3B"/>
<path fill-rule="evenodd" clip-rule="evenodd" d="M80.4905 209.47L79.2529 207.933C80.1204 207.238 80.9999 206.559 81.8713 205.868L83.085 207.42C82.2175 208.104 81.3461 208.779 80.4865 209.466L80.4905 209.47Z" fill="#3D3C3B"/>
<path fill-rule="evenodd" clip-rule="evenodd" d="M75.918 213.239L74.6406 211.737C75.4922 211.023 76.3358 210.296 77.2033 209.601L78.4568 211.122C77.5973 211.809 76.7616 212.528 75.918 213.235V213.239Z" fill="#3D3C3B"/>
<path fill-rule="evenodd" clip-rule="evenodd" d="M71.4534 217.115L70.1362 215.645L72.6432 213.445L73.9365 214.934L71.4534 217.115Z" fill="#3D3C3B"/>
<path fill-rule="evenodd" clip-rule="evenodd" d="M94.7721 198.811L93.646 197.194L96.3917 195.312L97.502 196.94L94.7721 198.811Z" fill="#3D3C3B"/>
<path fill-rule="evenodd" clip-rule="evenodd" d="M89.9452 202.258L88.7832 200.669C89.2329 200.339 89.6786 200.01 90.1282 199.688L91.4892 198.727L92.6312 200.332L91.2822 201.289C90.8326 201.606 90.3909 201.94 89.9452 202.262V202.258Z" fill="#3D3C3B"/>
<path fill-rule="evenodd" clip-rule="evenodd" d="M85.2017 205.792L84.0039 204.228C84.8913 203.56 85.7707 202.881 86.6661 202.222L87.844 203.803C86.9566 204.458 86.0851 205.129 85.2017 205.796V205.792Z" fill="#3D3C3B"/>
<path d="M99.77 200.78L108.127 195.093L107.57 191.042C107.57 191.042 103.137 190.645 102.93 190.979C102.723 191.312 101.23 196.054 100.972 196.888C100.713 197.718 99.77 200.784 99.77 200.784V200.78Z" fill="#EC6200"/>
<path d="M140.972 171.884C140.821 171.63 140.531 171.491 140.24 171.527L91.3578 177.699C91.0594 177.734 90.8127 177.949 90.7291 178.239C90.6495 178.529 90.753 178.838 90.9917 179.021L98.2142 184.633C98.7753 185.069 99.0977 185.757 99.0738 186.463L98.6361 200.109C98.6241 200.423 98.8151 200.709 99.1056 200.824C99.3921 200.935 99.7264 200.86 99.9373 200.625L105.851 193.942C106.01 193.759 106.237 193.668 106.479 193.691C106.722 193.715 106.929 193.85 107.052 194.061L114.744 207.289C114.848 207.468 115.023 207.595 115.222 207.639L115.353 207.659C115.604 207.671 115.847 207.556 115.994 207.349L140.932 172.691C141.104 172.452 141.119 172.131 140.968 171.876L140.972 171.884Z" fill="#FB6800"/>
<path d="M140.694 171.622L98.7636 185.292C98.9666 185.649 99.0859 186.05 99.074 186.467L98.6363 200.113C98.6243 200.427 98.8153 200.713 99.1058 200.828C99.3923 200.939 99.7266 200.864 99.9375 200.629L105.851 193.946L105.998 193.842L106.01 193.811L140.965 171.876C140.897 171.765 140.801 171.682 140.69 171.618L140.694 171.622Z" fill="#CE5600"/>
</g>
<defs>
<clipPath id="clip0_692_91199">
<rect width="1391" height="511" fill="white"/>
</clipPath>
<clipPath id="clip1_692_91199">
<rect width="408.012" height="421.23" fill="white" transform="translate(954.231 196.686)"/>
</clipPath>
</defs>
</svg>
