<svg width="28" height="28" viewBox="0 0 28 28" fill="none" xmlns="http://www.w3.org/2000/svg">
<path d="M14 0.5C6.55421 0.5 0.5 6.55421 0.5 14C0.5 21.4458 6.55421 27.5 14 27.5C21.4458 27.5 27.5 21.4458 27.5 14C27.5 6.55421 21.4424 0.5 14 0.5ZM22.1502 22.0127C21.8925 20.6212 21.2843 19.3052 20.3703 18.2057C20.2839 18.1016 20.1778 18.0156 20.058 17.9526C19.9382 17.8897 19.8072 17.851 19.6725 17.8389C19.5377 17.8268 19.4019 17.8414 19.2728 17.8819C19.1438 17.9225 19.024 17.9881 18.9203 18.0751C18.8162 18.1615 18.7303 18.2676 18.6673 18.3874C18.6044 18.5072 18.5657 18.6382 18.5536 18.7729C18.5415 18.9077 18.5561 19.0435 18.5966 19.1726C18.6371 19.3016 18.7028 19.4214 18.7898 19.5251C19.7175 20.6418 20.2294 22.054 20.2294 23.5074C20.2294 23.5314 20.2363 23.5555 20.2363 23.5795C18.4427 24.7512 16.3021 25.435 14 25.435C11.6979 25.435 9.5607 24.7512 7.76368 23.5795C7.76368 23.5555 7.77055 23.5349 7.77055 23.5074C7.77055 20.0748 10.564 17.2779 14 17.2779C17.2092 17.2779 19.8206 14.6666 19.8206 11.4574C19.8206 8.24815 17.2092 5.6368 14 5.6368C10.7908 5.6368 8.17944 8.24815 8.17944 11.4574C8.17944 13.3162 9.05561 14.9689 10.4163 16.0341C8.06948 17.1645 6.33431 19.3704 5.84983 22.0093C3.81573 19.9477 2.56159 17.1164 2.56159 14C2.56159 7.69152 7.69152 2.56159 14 2.56159C20.3085 2.56159 25.4384 7.69152 25.4384 14C25.435 17.1164 24.1808 19.9477 22.1502 22.0127ZM10.2376 11.4608C10.2376 9.3889 11.9247 7.70183 13.9966 7.70183C16.0685 7.70183 17.7555 9.3889 17.7555 11.4608C17.7555 13.5361 16.0685 15.2198 13.9966 15.2198C11.9247 15.2198 10.2376 13.5327 10.2376 11.4608Z" fill="white"/>
</svg>
