<svg width="27" height="22" viewBox="0 0 27 22" fill="none" xmlns="http://www.w3.org/2000/svg">
<path d="M22.6677 20.4368H4.33159C3.23424 20.4353 2.18225 19.9987 1.40638 19.2227C0.630506 18.4467 0.194096 17.3946 0.192871 16.2973V4.70195C0.194096 3.60467 0.630531 2.55268 1.40643 1.77679C2.18232 1.00089 3.23431 0.564458 4.33159 0.563232H22.6677C23.765 0.564457 24.8171 1.00087 25.5931 1.77674C26.3691 2.55261 26.8057 3.6046 26.8072 4.70195V16.2973C26.8059 17.3948 26.3694 18.447 25.5934 19.223C24.8173 19.999 23.7652 20.4356 22.6677 20.4368ZM4.33159 2.4918C3.74561 2.49242 3.1838 2.72547 2.76945 3.13982C2.35511 3.55417 2.12206 4.11597 2.12144 4.70195V16.2973C2.12185 16.8834 2.35481 17.4454 2.76918 17.8599C3.18355 18.2744 3.74547 18.5076 4.33159 18.5082H22.6677C23.2539 18.5076 23.8159 18.2745 24.2303 17.86C24.6448 17.4455 24.878 16.8835 24.8786 16.2973V4.70195C24.8778 4.1159 24.6445 3.5541 24.2301 3.13977C23.8156 2.72544 23.2537 2.49242 22.6677 2.4918H4.33159Z" fill="white"/>
<g filter="url(#filter0_d_740_91580)">
<path d="M13.4892 13.0958C12.6801 13.1038 11.892 12.8388 11.252 12.3437L0.93957 4.12566C0.739578 3.96618 0.611131 3.73378 0.582486 3.47959C0.553841 3.22541 0.627345 2.97025 0.786827 2.77026C0.946309 2.57027 1.17871 2.44182 1.43289 2.41317C1.68708 2.38453 1.94223 2.45803 2.14223 2.61752L12.4516 10.8355C12.7561 11.0516 13.1205 11.1671 13.4939 11.1662C13.8673 11.1652 14.231 11.0477 14.5345 10.8301L24.7165 2.62137C24.9155 2.46087 25.1701 2.38598 25.4243 2.41317C25.6785 2.44037 25.9114 2.56743 26.0719 2.7664C26.2324 2.96537 26.3073 3.21995 26.2801 3.47414C26.2529 3.72832 26.1259 3.9613 25.9269 4.1218L15.7479 12.3306C15.1036 12.8344 14.3071 13.1043 13.4892 13.0958Z" fill="white"/>
</g>
<defs>
<filter id="filter0_d_740_91580" x="-3.42358" y="2.4071" width="33.7092" height="18.689" filterUnits="userSpaceOnUse" color-interpolation-filters="sRGB">
<feFlood flood-opacity="0" result="BackgroundImageFix"/>
<feColorMatrix in="SourceAlpha" type="matrix" values="0 0 0 0 0 0 0 0 0 0 0 0 0 0 0 0 0 0 127 0" result="hardAlpha"/>
<feOffset dy="4"/>
<feGaussianBlur stdDeviation="2"/>
<feComposite in2="hardAlpha" operator="out"/>
<feColorMatrix type="matrix" values="0 0 0 0 0 0 0 0 0 0 0 0 0 0 0 0 0 0 0.25 0"/>
<feBlend mode="normal" in2="BackgroundImageFix" result="effect1_dropShadow_740_91580"/>
<feBlend mode="normal" in="SourceGraphic" in2="effect1_dropShadow_740_91580" result="shape"/>
</filter>
</defs>
</svg>
